<?xml version="1.0" encoding="UTF-8"?>
<!DOCTYPE svg PUBLIC "-//W3C//DTD SVG 1.1//EN" "http://www.w3.org/Graphics/SVG/1.1/DTD/svg11.dtd">
<!-- Creator: CorelDRAW 2020 (64-Bit) -->
<svg xmlns="http://www.w3.org/2000/svg" xml:space="preserve" width="6.17937in" height="1.46153in" version="1.1" style="shape-rendering:geometricPrecision; text-rendering:geometricPrecision; image-rendering:optimizeQuality; fill-rule:evenodd; clip-rule:evenodd"
viewBox="0 0 6181.88 1462.13"
 xmlns:xlink="http://www.w3.org/1999/xlink"
 xmlns:xodm="http://www.corel.com/coreldraw/odm/2003">
 <defs>
  <style type="text/css">
   <![CDATA[
    .fil0 {fill:#FEFEFE;fill-rule:nonzero}
   ]]>
  </style>
 </defs>
 <g id="Layer_x0020_1">
  <metadata id="CorelCorpID_0Corel-Layer"/>
  <polygon class="fil0" points="1676.72,1387.34 1690.59,1387.34 1690.59,227.99 1676.72,227.99 "/>
  <polygon class="fil0" points="2503.18,438.49 2317.15,920.99 2141.84,920.99 1957.09,438.49 2120.43,438.49 2232.39,770.59 2342.93,438.49 "/>
  <path class="fil0" d="M2854.88 794.78l0 -100.21c-20.9,1.72 -43.54,4.07 -67.89,7.07 -24.34,3 -42.82,6.49 -55.42,10.49 -15.47,4.86 -27.29,11.92 -35.45,21.2 -8.16,9.28 -12.24,21.49 -12.24,36.61 0,10 0.86,18.14 2.58,24.42 1.72,6.28 6.01,12.28 12.89,17.98 6.57,5.71 14.46,9.93 23.62,12.64 9.16,2.71 23.48,4.06 42.96,4.06 15.47,0 31.15,-3.12 47.05,-9.42 15.9,-6.28 29.86,-14.55 41.89,-24.84zm0 75.08c-8.32,6.31 -18.62,13.9 -30.93,22.77 -12.32,8.88 -23.93,15.91 -34.81,21.05 -15.18,6.88 -30.93,11.97 -47.26,15.26 -16.33,3.28 -34.24,4.94 -53.71,4.94 -45.84,0 -84.22,-14.18 -115.16,-42.54 -30.93,-28.36 -46.4,-64.59 -46.4,-108.69 0,-35.24 7.88,-64.02 23.64,-86.36 15.75,-22.34 38.08,-39.96 67.02,-52.85 28.65,-12.89 64.16,-22.05 106.55,-27.5 42.39,-5.44 86.37,-9.45 131.9,-12.03l0 -2.58c0,-26.63 -10.88,-45.04 -32.66,-55.21 -21.76,-10.16 -53.84,-15.26 -96.24,-15.26 -25.49,0 -52.7,4.52 -81.64,13.54 -28.93,9.02 -49.7,15.97 -62.3,20.84l-14.18 0 0 -116.43c16.33,-4.3 42.91,-9.38 79.71,-15.26 36.81,-5.86 73.68,-8.81 110.62,-8.81 87.95,0 151.46,13.53 190.56,40.61 39.1,27.06 58.65,69.53 58.65,127.39l0 328.24 -153.39 0 0 -51.13z"/>
  <path class="fil0" d="M3595.41 578.99l0 342 -155.11 0 0 -241.03c0,-23.48 -0.58,-43.46 -1.72,-59.94 -1.15,-16.47 -4.29,-29.85 -9.44,-40.17 -5.16,-10.3 -12.98,-17.83 -23.43,-22.55 -10.45,-4.73 -25.12,-7.09 -44.03,-7.09 -15.18,0 -29.94,3.08 -44.26,9.24 -14.32,6.16 -27.21,12.67 -38.66,19.54l0 342 -155.11 0 0 -482.5 155.11 0 0 53.28c26.6,-20.9 52.06,-37.23 76.38,-48.98 24.31,-11.74 51.19,-17.61 80.67,-17.61 31.74,0 59.8,7.09 84.12,21.27 24.31,14.17 43.32,35.01 57.07,62.51 30.87,-26.06 60.9,-46.54 90.08,-61.44 29.18,-14.89 57.78,-22.34 85.79,-22.34 52.06,0 91.6,15.61 118.63,46.82 27.03,31.23 40.55,76.2 40.55,134.91l0 314.07 -155.11 0 0 -241.03c0,-23.77 -0.5,-43.82 -1.5,-60.15 -1,-16.33 -4.08,-29.63 -9.23,-39.96 -4.88,-10.3 -12.62,-17.83 -23.21,-22.55 -10.6,-4.73 -25.51,-7.09 -44.68,-7.09 -12.89,0 -25.51,2.22 -37.82,6.65 -12.32,4.45 -27.35,11.82 -45.1,22.13z"/>
  <path class="fil0" d="M2103.81 1099.44l-2.02 0c-4.2,-1.22 -9.68,-2.47 -16.46,-3.76 -6.77,-1.27 -12.73,-1.92 -17.87,-1.92 -16.37,0 -28.25,3.63 -35.64,10.85 -7.37,7.26 -11.06,20.35 -11.06,39.3l0 7.72 68.84 0 0 32.09 -67.62 0 0 194.75 -38.18 0 0 -194.75 -25.78 0 0 -32.09 25.78 0 0 -7.51c0,-26.94 6.7,-47.63 20.1,-62.03 13.4,-14.43 32.76,-21.63 58.08,-21.63 8.53,0 16.2,0.41 23.04,1.22 6.83,0.82 13.1,1.76 18.78,2.84l0 34.93z"/>
  <path class="fil0" d="M2269.44 1265.14c0,-29.38 -5.75,-51.2 -17.26,-65.5 -11.51,-14.27 -27.49,-21.41 -47.93,-21.41 -20.71,0 -36.79,7.15 -48.23,21.41 -11.44,14.3 -17.16,36.12 -17.16,65.5 0,28.43 5.76,50 17.26,64.68 11.5,14.69 27.54,22.03 48.13,22.03 20.31,0 36.25,-7.27 47.83,-21.84 11.58,-14.54 17.36,-36.17 17.36,-64.87zm39.4 0c0,36.96 -9.48,66.13 -28.44,87.52 -18.95,21.39 -44.33,32.1 -76.15,32.1 -32.1,0 -57.57,-10.71 -76.46,-32.1 -18.89,-21.39 -28.33,-50.56 -28.33,-87.52 0,-36.96 9.44,-66.15 28.33,-87.61 18.88,-21.45 44.36,-32.19 76.46,-32.19 31.81,0 57.2,10.74 76.15,32.19 18.95,21.46 28.44,50.66 28.44,87.61z"/>
  <path class="fil0" d="M2509.36 1265.14c0,-29.38 -5.75,-51.2 -17.26,-65.5 -11.5,-14.27 -27.47,-21.41 -47.92,-21.41 -20.71,0 -36.79,7.15 -48.22,21.41 -11.44,14.3 -17.16,36.12 -17.16,65.5 0,28.43 5.75,50 17.26,64.68 11.5,14.69 27.56,22.03 48.13,22.03 20.31,0 36.25,-7.27 47.83,-21.84 11.57,-14.54 17.35,-36.17 17.35,-64.87zm39.4 0c0,36.96 -9.48,66.13 -28.43,87.52 -18.95,21.39 -44.33,32.1 -76.15,32.1 -32.08,0 -57.57,-10.71 -76.45,-32.1 -18.88,-21.39 -28.33,-50.56 -28.33,-87.52 0,-36.96 9.45,-66.15 28.33,-87.61 18.88,-21.45 44.37,-32.19 76.45,-32.19 31.82,0 57.2,10.74 76.15,32.19 18.95,21.46 28.43,50.66 28.43,87.61z"/>
  <path class="fil0" d="M2741.18 1322.62l0 -130.17c-10.29,-4.6 -19.49,-7.78 -27.61,-9.54 -8.13,-1.76 -17,-2.64 -26.6,-2.64 -21.39,0 -38.04,7.44 -49.96,22.34 -11.91,14.89 -17.87,36.01 -17.87,63.36 0,26.94 4.61,47.41 13.81,61.43 9.2,14 23.97,21.01 44.28,21.01 10.83,0 21.79,-2.39 32.9,-7.2 11.09,-4.81 21.45,-11 31.07,-18.58zm38.18 55.85l-38.18 0 0 -23.76c-10.97,9.46 -22.4,16.84 -34.32,22.12 -11.91,5.29 -24.84,7.93 -38.79,7.93 -27.07,0 -48.56,-10.43 -64.48,-31.28 -15.9,-20.84 -23.86,-49.75 -23.86,-86.71 0,-19.22 2.75,-36.35 8.24,-51.38 5.47,-15.03 12.9,-27.82 22.23,-38.38 9.21,-10.29 19.94,-18.15 32.18,-23.56 12.26,-5.41 24.95,-8.12 38.08,-8.12 11.91,0 22.47,1.26 31.68,3.77 9.21,2.5 18.88,6.39 29.04,11.67l0 -98.28 38.18 0 0 315.98z"/>
  <path class="fil0" d="M3137.79 1313.07c0,20.71 -8.57,37.7 -25.68,50.97 -17.15,13.28 -40.52,19.91 -70.17,19.91 -16.79,0 -32.17,-2 -46.21,-6.01 -14,-3.97 -25.74,-8.35 -35.22,-13.08l0 -42.85 2.04 0c12.05,9.07 25.44,16.29 40.2,21.63 14.75,5.36 28.9,8.02 42.43,8.02 16.79,0 29.93,-2.71 39.4,-8.13 9.48,-5.42 14.23,-13.95 14.23,-25.59 0,-8.94 -2.58,-15.7 -7.72,-20.3 -5.14,-4.6 -15.03,-8.53 -29.65,-11.78 -5.41,-1.22 -12.49,-2.63 -21.21,-4.26 -8.75,-1.63 -16.69,-3.39 -23.87,-5.28 -19.89,-5.28 -34,-13.02 -42.34,-23.25 -8.31,-10.22 -12.49,-22.78 -12.49,-37.67 0,-9.34 1.93,-18.14 5.8,-26.4 3.85,-8.26 9.7,-15.64 17.56,-22.13 7.59,-6.36 17.22,-11.4 28.95,-15.14 11.7,-3.71 24.8,-5.57 39.29,-5.57 13.53,0 27.24,1.67 41.13,4.98 13.86,3.32 25.41,7.33 34.61,12.08l0 40.82 -2.04 0c-9.75,-7.18 -21.59,-13.23 -35.53,-18.19 -13.94,-4.93 -27.63,-7.4 -41.02,-7.4 -13.95,0 -25.73,2.68 -35.34,8.03 -9.62,5.35 -14.42,13.29 -14.42,23.85 0,9.34 2.91,16.38 8.73,21.12 5.68,4.74 14.89,8.6 27.61,11.58 7.05,1.63 14.92,3.25 23.66,4.87 8.72,1.63 16,3.12 21.82,4.47 17.73,4.06 31.41,11.03 41.02,20.91 9.6,10.02 14.42,23.29 14.42,39.8z"/>
  <path class="fil0" d="M3332.64 1239.76c-0.14,-20.03 -5.17,-35.54 -15.12,-46.5 -9.95,-10.97 -25.09,-16.44 -45.38,-16.44 -20.45,0 -36.72,6.02 -48.84,18.07 -12.12,12.05 -18.99,27.01 -20.61,44.88l129.96 0zm37.17 29.24l-167.13 0c0,13.94 2.11,26.09 6.31,36.46 4.2,10.34 9.94,18.84 17.24,25.48 7.04,6.49 15.4,11.37 25.09,14.61 9.68,3.26 20.34,4.88 31.98,4.88 15.44,0 30.97,-3.07 46.61,-9.23 15.62,-6.16 26.77,-12.23 33.41,-18.18l2.02 0 0 41.62c-12.86,5.42 -25.99,9.95 -39.4,13.62 -13.39,3.66 -27.48,5.47 -42.22,5.47 -37.64,0 -67.02,-10.17 -88.14,-30.56 -21.11,-20.36 -31.67,-49.31 -31.67,-86.8 0,-37.09 10.11,-66.54 30.34,-88.33 20.24,-21.8 46.87,-32.7 79.9,-32.7 30.6,0 54.19,8.94 70.78,26.81 16.58,17.87 24.87,43.25 24.87,76.15l0 20.71z"/>
  <path class="fil0" d="M3582.93 1364.24c-12.71,6.1 -24.82,10.83 -36.24,14.23 -11.45,3.38 -23.59,5.07 -36.46,5.07 -16.37,0 -31.39,-2.41 -45.08,-7.22 -13.67,-4.78 -25.38,-12.08 -35.13,-21.82 -9.89,-9.75 -17.52,-22.06 -22.94,-36.96 -5.42,-14.9 -8.13,-32.29 -8.13,-52.19 0,-37.09 10.19,-66.2 30.56,-87.32 20.39,-21.12 47.28,-31.68 80.72,-31.68 13.01,0 25.77,1.82 38.28,5.48 12.53,3.66 24.01,8.13 34.42,13.4l0 42.44 -2.02 0c-11.64,-9.07 -23.65,-16.05 -36.06,-20.92 -12.36,-4.87 -24.45,-7.31 -36.24,-7.31 -21.65,0 -38.76,7.28 -51.26,21.82 -12.53,14.57 -18.8,35.92 -18.8,64.08 0,27.35 6.13,48.37 18.4,63.04 12.22,14.7 29.47,22.04 51.66,22.04 7.72,0 15.57,-1.01 23.55,-3.04 8,-2.03 15.17,-4.67 21.53,-7.92 5.56,-2.85 10.76,-5.85 15.64,-9.05 4.88,-3.17 8.74,-5.91 11.58,-8.21l2.02 0 0 42.03z"/>
  <path class="fil0" d="M3807.44 1378.47l-38.18 0 0 -25.19c-12.86,10.16 -25.17,17.94 -36.96,23.36 -11.78,5.4 -24.77,8.12 -39,8.12 -23.81,0 -42.36,-7.28 -55.63,-21.85 -13.27,-14.53 -19.91,-35.89 -19.91,-64.05l0 -147.22 38.18 0 0 129.15c0,11.51 0.54,21.36 1.62,29.55 1.08,8.19 3.38,15.19 6.9,21.01 3.66,5.96 8.4,10.29 14.23,13 5.83,2.71 14.28,4.06 25.38,4.06 9.89,0 20.67,-2.58 32.4,-7.72 11.69,-5.14 22.62,-11.71 32.79,-19.7l0 -169.36 38.18 0 0 226.84z"/>
  <path class="fil0" d="M4011.63 1193.26l-2.02 0c-5.69,-1.35 -11.22,-2.33 -16.57,-2.95 -5.34,-0.6 -11.67,-0.91 -18.99,-0.91 -11.77,0 -23.15,2.61 -34.12,7.81 -10.97,5.23 -21.51,11.96 -31.67,20.21l0 161.04 -38.18 0 0 -226.84 38.18 0 0 33.51c15.16,-12.19 28.54,-20.82 40.11,-25.88 11.58,-5.09 23.38,-7.62 35.42,-7.62 6.64,0 11.46,0.17 14.43,0.5 2.99,0.35 7.46,0.99 13.41,1.94l0 39.19z"/>
  <path class="fil0" d="M4073.68 1378.47l-38.18 0 0 -226.84 38.18 0 0 226.84zm2.44 -264.81l-43.06 0 0 -39.59 43.06 0 0 39.59z"/>
  <path class="fil0" d="M4254.53 1376.43c-7.18,1.9 -15,3.45 -23.47,4.67 -8.46,1.22 -16.01,1.83 -22.64,1.83 -23.15,0 -40.76,-6.23 -52.8,-18.69 -12.05,-12.45 -18.06,-32.42 -18.06,-59.9l0 -120.62 -25.8 0 0 -32.09 25.8 0 0 -65.18 38.17 0 0 65.18 78.8 0 0 32.09 -78.8 0 0 103.35c0,11.91 0.28,21.23 0.82,27.92 0.54,6.72 2.44,12.97 5.68,18.79 2.98,5.42 7.07,9.39 12.28,11.89 5.21,2.51 13.17,3.75 23.86,3.75 6.23,0 12.72,-0.92 19.5,-2.75 6.77,-1.82 11.63,-3.35 14.62,-4.56l2.03 0 0 34.32z"/>
  <polygon class="fil0" points="4482.27,1151.63 4349.88,1462.13 4309.06,1462.13 4351.3,1367.5 4260.94,1151.63 4302.36,1151.63 4372.01,1319.77 4442.28,1151.63 "/>
  <path class="fil0" d="M4791.77 1322.62l0 -63.16c-11.64,0.68 -25.34,1.7 -41.12,3.05 -15.77,1.35 -28.25,3.32 -37.46,5.88 -10.96,3.11 -19.85,7.96 -26.61,14.51 -6.76,6.58 -10.16,15.61 -10.16,27.12 0,12.99 3.94,22.78 11.78,29.33 7.85,6.59 19.85,9.85 35.96,9.85 13.4,0 25.63,-2.59 36.74,-7.82 11.1,-5.2 21.39,-11.47 30.87,-18.77zm37.98 55.85l-37.98 0 0 -24.18c-3.38,2.3 -7.96,5.53 -13.71,9.66 -5.75,4.14 -11.34,7.4 -16.76,9.85 -6.36,3.1 -13.67,5.71 -21.93,7.8 -8.25,2.1 -17.92,3.16 -29.02,3.16 -20.45,0 -37.78,-6.78 -51.99,-20.31 -14.22,-13.54 -21.33,-30.8 -21.33,-51.78 0,-17.2 3.69,-31.09 11.06,-41.72 7.39,-10.63 17.9,-18.99 31.58,-25.09 13.81,-6.09 30.4,-10.22 49.77,-12.39 19.35,-2.17 40.11,-3.79 62.32,-4.88l0 -5.88c0,-8.66 -1.52,-15.84 -4.56,-21.52 -3.05,-5.69 -7.42,-10.16 -13.1,-13.41 -5.4,-3.11 -11.91,-5.21 -19.49,-6.29 -7.58,-1.08 -15.51,-1.63 -23.77,-1.63 -10.02,0 -21.17,1.33 -33.49,3.95 -12.32,2.65 -25.05,6.47 -38.18,11.48l-2.02 0 0 -38.78c7.44,-2.03 18.19,-4.27 32.27,-6.7 14.07,-2.44 27.96,-3.66 41.65,-3.66 15.97,0 29.87,1.33 41.73,3.95 11.84,2.65 22.08,7.15 30.75,13.51 8.54,6.23 15.03,14.29 19.5,24.17 4.46,9.89 6.71,22.13 6.71,36.76l0 153.94z"/>
  <path class="fil0" d="M5080.44 1378.47l-38.18 0 0 -129.16c0,-10.43 -0.61,-20.2 -1.83,-29.35 -1.22,-9.13 -3.45,-16.27 -6.7,-21.42 -3.38,-5.69 -8.26,-9.91 -14.62,-12.7 -6.36,-2.76 -14.62,-4.15 -24.77,-4.15 -10.43,0 -21.32,2.57 -32.69,7.72 -11.38,5.14 -22.28,11.71 -32.7,19.7l0 169.37 -38.18 0 0 -226.84 38.18 0 0 25.18c11.92,-9.88 24.23,-17.6 36.96,-23.15 12.72,-5.55 25.8,-8.33 39.19,-8.33 24.51,0 43.19,7.38 56.05,22.14 12.86,14.76 19.3,36.01 19.3,63.76l0 147.23z"/>
  <path class="fil0" d="M5279.76 1322.62l0 -63.16c-11.65,0.68 -25.36,1.7 -41.13,3.05 -15.77,1.35 -28.25,3.32 -37.46,5.88 -10.97,3.11 -19.84,7.96 -26.6,14.51 -6.77,6.58 -10.15,15.61 -10.15,27.12 0,12.99 3.92,22.78 11.77,29.33 7.86,6.59 19.83,9.85 35.94,9.85 13.41,0 25.65,-2.59 36.75,-7.82 11.11,-5.2 21.39,-11.47 30.87,-18.77zm37.97 55.85l-37.97 0 0 -24.18c-3.38,2.3 -7.96,5.53 -13.7,9.66 -5.76,4.14 -11.35,7.4 -16.76,9.85 -6.36,3.1 -13.68,5.71 -21.93,7.8 -8.26,2.1 -17.94,3.16 -29.04,3.16 -20.45,0 -37.78,-6.78 -51.99,-20.31 -14.22,-13.54 -21.32,-30.8 -21.32,-51.78 0,-17.2 3.67,-31.09 11.07,-41.72 7.37,-10.63 17.9,-18.99 31.57,-25.09 13.81,-6.09 30.39,-10.22 49.75,-12.39 19.35,-2.17 40.13,-3.79 62.34,-4.88l0 -5.88c0,-8.66 -1.52,-15.84 -4.57,-21.52 -3.04,-5.69 -7.4,-10.16 -13.1,-13.41 -5.41,-3.11 -11.91,-5.21 -19.49,-6.29 -7.59,-1.08 -15.5,-1.63 -23.76,-1.63 -10.01,0 -21.18,1.33 -33.51,3.95 -12.3,2.65 -25.03,6.47 -38.17,11.48l-2.02 0 0 -38.78c7.44,-2.03 18.2,-4.27 32.28,-6.7 14.08,-2.44 27.96,-3.66 41.63,-3.66 15.97,0 29.87,1.33 41.74,3.95 11.82,2.65 22.08,7.15 30.75,13.51 8.54,6.23 15.03,14.29 19.5,24.17 4.46,9.89 6.7,22.13 6.7,36.76l0 153.94z"/>
  <polygon class="fil0" points="5379.18,1378.47 5417.36,1378.47 5417.36,1062.49 5379.18,1062.49 "/>
  <polygon class="fil0" points="5676.57,1151.63 5544.18,1462.13 5503.37,1462.13 5545.6,1367.5 5455.23,1151.63 5496.65,1151.63 5566.31,1319.77 5636.57,1151.63 "/>
  <path class="fil0" d="M5876.1 1313.07c0,20.71 -8.57,37.7 -25.68,50.97 -17.13,13.28 -40.52,19.91 -70.17,19.91 -16.79,0 -32.17,-2 -46.21,-6.01 -13.99,-3.97 -25.74,-8.35 -35.23,-13.08l0 -42.85 2.04 0c12.05,9.07 25.45,16.29 40.21,21.63 14.76,5.36 28.9,8.02 42.45,8.02 16.79,0 29.91,-2.71 39.38,-8.13 9.48,-5.42 14.23,-13.95 14.23,-25.59 0,-8.94 -2.58,-15.7 -7.72,-20.3 -5.14,-4.6 -15.03,-8.53 -29.64,-11.78 -5.42,-1.22 -12.5,-2.63 -21.22,-4.26 -8.75,-1.63 -16.69,-3.39 -23.86,-5.28 -19.91,-5.28 -34.02,-13.02 -42.34,-23.25 -8.35,-10.22 -12.49,-22.78 -12.49,-37.67 0,-9.34 1.93,-18.14 5.78,-26.4 3.87,-8.26 9.72,-15.64 17.56,-22.13 7.59,-6.36 17.22,-11.4 28.94,-15.14 11.7,-3.71 24.8,-5.57 39.29,-5.57 13.54,0 27.24,1.67 41.13,4.98 13.86,3.32 25.41,7.33 34.62,12.08l0 40.82 -2.04 0c-9.74,-7.18 -21.58,-13.23 -35.53,-18.19 -13.94,-4.93 -27.61,-7.4 -41.02,-7.4 -13.95,0 -25.73,2.68 -35.34,8.03 -9.61,5.35 -14.42,13.29 -14.42,23.85 0,9.34 2.91,16.38 8.73,21.12 5.68,4.74 14.89,8.6 27.61,11.58 7.05,1.63 14.92,3.25 23.66,4.87 8.72,1.63 16,3.12 21.82,4.47 17.75,4.06 31.41,11.03 41.02,20.91 9.62,10.02 14.42,23.29 14.42,39.8z"/>
  <path class="fil0" d="M5956.84 1378.47l-38.18 0 0 -226.84 38.18 0 0 226.84zm2.43 -264.81l-43.05 0 0 -39.59 43.05 0 0 39.59z"/>
  <path class="fil0" d="M6181.88 1315.96c-0.77,19.41 -9.31,35.44 -25.63,48.08 -17.13,13.28 -40.5,19.91 -70.16,19.91 -16.79,0 -32.17,-2 -46.2,-6.01 -14,-3.97 -25.75,-8.35 -35.22,-13.08l0 -42.85 2.02 0c12.05,9.07 25.46,16.29 40.22,21.63 14.75,5.36 28.91,8.02 42.43,8.02 16.79,0 29.92,-2.71 39.4,-8.13 9.48,-5.42 14.21,-13.95 14.21,-25.59 0,-8.94 -2.57,-15.7 -7.71,-20.3 -5.14,-4.6 -15.03,-8.53 -29.65,-11.78 -5.42,-1.22 -12.49,-2.63 -21.21,-4.26 -8.75,-1.63 -16.69,-3.39 -23.87,-5.28 -19.89,-5.28 -34.02,-13.02 -42.34,-23.25 -8.33,-10.22 -12.49,-22.78 -12.49,-37.67 0,-9.34 1.94,-18.14 5.78,-26.4 3.86,-8.26 9.72,-15.64 17.57,-22.13 7.59,-6.36 17.22,-11.4 28.94,-15.14 11.69,-3.71 24.8,-5.57 39.29,-5.57 13.53,0 27.23,1.67 41.12,4.98 13.86,3.32 25.42,7.33 34.62,12.08l0 40.82 -2.02 0c-9.74,-7.18 -21.6,-13.23 -35.54,-18.19 -13.93,-4.93 -27.62,-7.4 -41.02,-7.4 -13.93,0 -25.72,2.68 -35.32,8.03 -9.62,5.35 -14.42,13.29 -14.42,23.85 0,9.34 2.91,16.38 8.72,21.12 5.7,4.74 14.9,8.6 27.63,11.58 7.03,1.63 14.92,3.25 23.66,4.87 8.72,1.63 16,3.12 21.82,4.47 17.73,4.06 31.41,11.03 41.02,20.91 9,9.4 13.79,21.64 14.36,36.75l0 5.94z"/>
  <path class="fil0" d="M892.34 92.22l13.67 0c12.77,0 22.33,-2.52 28.67,-7.58 6.34,-5.04 9.54,-12.41 9.54,-22.03 0,-9.73 -2.67,-16.95 -7.99,-21.59 -5.31,-4.64 -13.65,-6.96 -25,-6.96l-18.89 0 0 58.16zm93.82 -31.09c0,21.08 -6.59,37.2 -19.78,48.39 -13.18,11.17 -31.89,16.74 -56.2,16.74l-17.84 0 0 69.69 -41.54 0 0 -195.95 62.58 0c23.78,0 41.84,5.12 54.21,15.37 12.38,10.23 18.57,25.47 18.57,45.76zm-237.97 134.82l-40.84 0 0 -195.95 112.31 0 0 34.06 -71.46 0 0 50.52 66.5 0 0 33.92 -66.5 0 0 77.45zm-112.9 0l-47.31 0 -26.53 -102.93c-1,-3.67 -2.67,-11.23 -5.04,-22.7 -2.34,-11.51 -3.71,-19.19 -4.07,-23.14 -0.54,4.85 -1.87,12.61 -4.02,23.26 -2.14,10.68 -3.82,18.32 -4.96,22.86l-26.4 102.65 -47.16 0 -50 -195.95 40.87 0 25.05 106.97c4.4,19.74 7.56,36.85 9.54,51.33 0.52,-5.09 1.75,-12.98 3.69,-23.66 1.89,-10.68 3.71,-18.96 5.41,-24.85l28.55 -109.79 39.28 0 28.54 109.79c1.24,4.89 2.8,12.4 4.69,22.51 1.87,10.1 3.29,18.76 4.29,26 0.87,-6.99 2.32,-15.68 4.27,-26.08 1.97,-10.39 3.76,-18.81 5.36,-25.25l24.93 -106.97 40.87 0 -49.85 195.95zm-101.61 681.51c-76.13,0 -125.01,18.07 -138.34,23.68 -0.79,0.32 -1.42,-0.77 -0.85,-1.4 83.7,-86.96 181.63,-82.14 205.18,-82.14 23.86,0 278.51,0 278.51,0 14.03,0 25.4,13.4 25.4,29.92 0,16.55 -11.38,29.94 -25.4,29.94 0,0 -279.48,0 -344.51,0zm62.73 76.98c-82.02,0 -105.92,-46.61 -230.08,-15.85 -0.88,0.2 -1.45,-0.95 -0.73,-1.44 69.22,-47.49 144.5,-43.17 174.96,-43.17 23.83,0 337.63,0 337.63,0 14.03,0 25.4,13.4 25.4,29.91 0,16.54 -11.38,29.95 -25.4,29.95 0,0 -216.83,0.59 -281.78,0.59zm5.84 75.78c-84.22,0 -90.95,-62.13 -215.77,-76.13 -0.87,-0.1 -0.98,-1.4 -0.13,-1.6 102.56,-25.64 140.71,17.85 200.57,17.85 23.83,0 291.26,0 291.26,0 14.03,0 25.4,13.4 25.4,29.94 0,16.51 -11.38,29.94 -25.4,29.94 0,0 -210.92,0 -275.94,0zm-18.29 -229.13c-67.78,0 -123.96,29.56 -137.11,37.03 -0.73,0.4 -1.47,-0.45 -1,-1.15 11,-16.2 70.36,-95.74 172.44,-95.74 23.83,0 259.9,0 259.9,0 14.03,0 25.4,13.4 25.4,29.94 0,16.51 -11.38,29.92 -25.4,29.92 0,0 -229.21,0 -294.23,0zm372.81 -165.31c-2.62,-2.65 -6.56,-4.56 -11.05,-5.11 -3.34,-0.45 -6.36,0.07 -9.03,1.08 1.15,-2.45 2.14,-5.12 2.54,-8.21 0.65,-4.87 -0.27,-9.36 -2.1,-12.8 -8.38,-18.36 15.6,-55.12 12.58,-56.76 -2.89,-1.6 -16.51,38.92 -29.74,55.29 -2.55,2.99 -4.39,7.28 -4.97,12.2 -0.47,4.84 0.33,9.43 2.14,12.8 1.85,3.32 4.67,5.64 7.94,5.83 0.93,0.13 1.83,0.05 2.69,-0.15 -0.2,0.47 -0.39,1 -0.47,1.47 -0.52,3.6 0.85,6.97 3.54,9.69 2.62,2.77 6.46,4.64 11,5.16 4.64,0.6 8.96,-0.32 12.3,-2.32 17.94,-9.8 55.14,-19.49 54.35,-22.95 -0.7,-3.44 -36.98,17.84 -51.73,4.79zm27.45 -26.77c-2.5,-2.73 -6.04,-4.59 -10.16,-4.99 -2.37,-0.12 -4.51,0.28 -6.68,1.08 0.33,-1.15 0.8,-2.12 0.92,-3.25 0.45,-4.39 -0.59,-8.43 -2.55,-11.55 -9.1,-16.92 14.65,-48.78 11.58,-50.38 -3.07,-1.6 -16.12,34.13 -29.32,48.26 -2.62,2.52 -4.46,6.24 -4.94,10.6 -0.37,4.4 0.59,8.49 2.49,11.61 2.1,3.04 4.99,5.24 8.46,5.71 1.5,0.12 3.07,-0.15 4.47,-0.55 -0.08,0.23 -0.28,0.48 -0.23,0.67 -0.3,3.72 1.05,7.31 3.47,9.96 2.52,2.65 6.12,4.49 10.11,4.82 4.12,0.43 7.92,-0.7 10.81,-2.89 15.44,-11.13 50.8,-17.77 49.88,-21.36 -0.83,-3.44 -34.69,15.24 -48.31,2.27zm24.03 -24.81c-2.54,-1.92 -6.03,-2.99 -9.68,-2.6 -1.77,0.08 -3.41,0.6 -4.92,1.27 0.26,-0.75 0.73,-1.32 0.98,-2.07 0.98,-3.76 0.65,-7.61 -0.6,-10.73 -5.76,-16.57 19.79,-41.12 17.29,-43.09 -2.47,-1.87 -19.04,27.85 -32.66,38.33 -2.62,1.89 -4.71,4.97 -5.77,8.81 -1.12,3.72 -0.8,7.61 0.52,10.68 1.37,3.09 3.59,5.44 6.61,6.36 2.3,0.73 4.57,0.28 6.74,-0.67 -0.45,1.28 -0.72,2.73 -0.6,4.25 0.35,3.4 1.97,6.24 4.67,8.23 2.55,2 6.01,2.97 9.63,2.73 3.71,-0.41 6.93,-2 9.15,-4.37 12.25,-12.43 42.77,-24 41.52,-27 -1.32,-2.99 -28.74,19.09 -42.89,9.88zm47.29 -53.25c-2.57,-3.77 -23.9,19.61 -39.7,21.88 -2.95,0.4 -6.22,1.85 -8.96,4.44 -2.94,2.65 -4.84,5.88 -5.51,9 -0.73,3.07 -0.25,6.04 1.37,8.09 1.77,2.12 4.46,3.07 7.48,2.72 2.99,-0.32 6.14,-1.78 9.11,-4.49 2.71,-2.6 4.64,-5.84 5.34,-8.89 4.79,-16.04 32.76,-30.32 30.86,-32.76zm-441.5 31.69c-0.65,2.32 -5.24,20.36 -5.24,20.36 -1.3,0.72 -6.81,-0.47 -8.26,-0.6 -10.52,-1 -19.93,-10.16 -15.89,-21.09 3.3,-8.93 10.08,-9.88 18.67,-10.28 3.54,-0.15 9.98,0.7 13.18,2.92 0,0 -1.27,4.12 -2.45,8.68zm-12.1 54.45c-0.35,2.04 -0.67,4.09 -1,6.16 -6.54,-4.12 -10.41,-13.53 -7.27,-20.96 2.42,-5.62 8.41,-7.12 12.82,-7.37 -1.57,7.37 -3.14,14.73 -4.56,22.16zm-9.44 67.3c-0.85,4.62 -7.09,5.24 -11.35,6.49 -12.38,3.72 -24.08,2.12 -27.9,-12.65 -4.12,-15.87 7.86,-22.49 20.71,-25.6 7.02,-1.67 13.47,-0.27 18.27,5.64 1.2,1.47 2.62,2.79 2.94,4.19 0,0 -1.89,17.57 -2.67,21.93zm-38.97 -77.9c9.56,-2.32 19.44,-5.92 26.77,3.49 7.74,9.88 5.19,25.73 -7.26,29.92 -8.18,2.77 -18.07,5.16 -25.08,-1.55 -9.15,-8.73 -8.51,-28.62 5.57,-31.86zm-9.36 -51.32c10.08,-2.45 20.48,-6.17 28.22,3.71 8.05,10.33 5.36,27.05 -7.66,31.42 -8.64,2.84 -19.06,5.36 -26.4,-1.65 -9.63,-9.16 -8.91,-30.04 5.83,-33.49zm-9.35 110.92c-2.62,9.23 -10.23,10.63 -18.22,12.54 -5.24,-6.44 -19.31,-22.67 -19.56,-24.63 -0.07,-0.64 0,-1.34 0.3,-2.22 0.65,-1.94 2.9,-3.79 4.52,-4.86 4.79,-3.09 14.99,-5.44 20.51,-4.29 9.88,2.12 15.07,14.17 12.45,23.45zm-50.06 -47.41c-7.19,-25.53 35.63,-36.65 42.25,-11.58 6.81,25.7 -36.4,36.65 -42.25,11.58zm-6.29 -50.97c-7.33,-25.4 35.71,-36.53 42.32,-11.61 6.81,25.8 -36.48,36.73 -42.32,11.61zm-6.01 -50.13c-7.01,-23.65 33.38,-34.14 39.55,-10.8 6.36,24.01 -34.07,34.33 -39.55,10.8zm-4.12 96.47c-2,1.2 -2.75,1.82 -3.4,1.82l-19.24 -20.91c0.26,-0.6 6.19,-4.92 8.16,-6.04 15.97,-8.86 29.12,16.52 14.47,25.13zm-36.48 -47.06c-9.51,-20.96 25.08,-43.69 35.56,-21.08 9.63,20.81 -24.96,43.96 -35.56,21.08zm29.06 -66.37c10.96,19.43 -22,41.09 -31.44,20.21 -8.38,-18.02 20.91,-39.02 31.44,-20.21zm-27.62 -45.29c4.84,-4.27 10.48,-6.64 16.25,-3.85 9.23,4.44 9.48,18.32 1.42,23.81 -3.67,2.52 -9.88,5.64 -14.4,4.51 -9.88,-2.52 -11.78,-16.96 -3.27,-24.47zm1.25 -41.62c3.99,-2.72 9.3,-5.14 13.87,-3.27 8.33,3.42 8.03,15.52 1.3,20.36 -3.06,2.19 -8.63,4.92 -12.37,3.92 -8.44,-2.12 -10.53,-15.79 -2.79,-21.01zm22.13 -59.34c4.94,-2.69 12.1,-3.81 16.54,1.18 5.23,5.86 3.54,14.79 -3.32,18.31 -5.31,2.65 -12.45,3.65 -16.64,-1.27 -4.59,-5.29 -3.64,-14.42 3.42,-18.22zm-3.95 45.07c-3.99,-14.85 21.01,-21.88 25.08,-6.76 4.51,14.68 -21.09,21.96 -25.08,6.76zm40.35 25.93c5.81,16.04 -21.36,25.12 -26.67,9.28 -5.42,-16.04 21.88,-25.17 26.67,-9.28zm3.39 -78.18c5.19,-2.07 11.86,-4.32 17.62,0 7.22,5.39 5.64,17.52 -2.62,21.31 -5.44,2.45 -12.38,4.09 -17.22,-0.23 -6.17,-5.49 -6.49,-17.56 2.21,-21.08zm-4.76 134.27c-7.33,1.73 -15.02,4.64 -21.11,-1.65 -7.78,-8.03 -5.54,-22.08 4.99,-25.92 6.81,-2.6 15.44,-4.04 21,1.65 7.14,7.31 6.37,23.21 -4.89,25.92zm0.12 -81.94c-4.71,-15.92 21.21,-24.08 26.2,-8.63 5.09,15.87 -21.76,24.28 -26.2,8.63zm43.42 29.17c6.08,18.16 -24.63,27.85 -30.28,9.96 -5.68,-18.32 25.21,-28 30.28,-9.96zm1.64 -48.65c5.39,-1.47 11.13,-0.95 15.25,3.51 6.29,6.76 4.12,18.29 -5.19,20.02 -4.36,0.79 -11.11,0.47 -14.52,-2.53 -6.16,-5.44 -5.86,-18.24 4.46,-21zm26.18 38.12c9.88,0 14.88,14.52 9.11,21.74 -3.47,4.39 -10.93,4.64 -16.05,3.84 -9.43,-1.44 -15.47,-13.57 -9.1,-21.8 3.87,-4.97 10.47,-3.77 16.04,-3.77zm-47.46 59.79c-6.11,-20.89 29.39,-30.21 34.83,-9.48 5.49,21.11 -30.19,30.37 -34.83,9.48zm21.73 26.72c9.69,-1 19.79,-3.25 25.72,6.89 6.22,10.75 1.57,25.68 -10.98,28.19 -8.28,1.73 -18.29,2.52 -24.18,-4.79 -7.73,-9.65 -4.64,-28.97 9.44,-30.29zm49.28 -46.51c11.95,4.94 16,19.07 7.56,26.95 -4.51,4.12 -12.77,3.32 -18.34,2.2 -11.13,-2.2 -18.41,-18.91 -8.66,-26.85 5.01,-4.06 13.97,-4.57 19.44,-2.3zm18.81 50.35c7.54,9.21 4.72,25.53 -8.43,26.33 -6.89,0.41 -15.87,-0.39 -20.51,-6.04 -7.46,-9.01 -4.64,-25.92 8.51,-26.37 6.89,-0.28 15.79,0.45 20.43,6.08zm50.88 -166.28c-0.72,-1.05 -2.02,-1.65 -3.34,-1.27 -1.58,0.55 -2.62,2.27 -2.02,3.8 30.07,80.77 -8.31,120.54 -24.35,177.11 -19.27,-45.96 44.51,-89.19 11.65,-172.94 -0.45,-1.05 -1.32,-1.89 -2.49,-2.12 -1.63,-0.18 -3.2,0.48 -3.47,2.67 -0.85,5.89 -4.71,52.33 -42.37,79.5 -3.87,-8.88 -9.56,-18.16 -17.54,-25.47 -3.47,-15.65 -13.67,-37.11 -35.16,-43.49 -3.22,-8.08 -9.7,-19.68 -22.13,-25.9 -11.73,-5.84 -25.3,-5.31 -40.35,1.52 -18.21,2.12 -30.72,9.21 -37.33,21.06 -6.21,11.23 -5.11,23.4 -3.02,31.69 -15.32,16.4 -16.04,40.65 -15.64,50.13 -9.1,21.89 -3.99,47.41 -1.12,58.02 -10.85,29.72 -0.26,58.56 3.99,68.09 0,2.6 0.15,5.03 0.28,7.51 -35.63,-39 -116.7,-87.26 -147.66,-105.7 -1.45,-0.85 -3.28,-0.67 -4.52,0.52 -1.57,1.47 -1.65,3.87 -0.2,5.44 69.09,67.37 130.72,150.51 189.91,323.03 29.52,-30.72 82.89,-71.09 158.86,-71.09l88.86 0c-56.44,-210.29 25.73,-285.55 -50.83,-382.09zm420.1 108.74c-16.24,-4.24 -119.97,-22.6 -236.2,191.21 16.95,-79.62 68.5,-175.96 82.64,-203.94l0 -0.2c0.85,-1.6 0.38,-3.64 -1.04,-4.79 -1.45,-1.05 -3.62,-0.73 -4.72,0.87 -76.83,128.11 -103.8,201.89 -119.69,290.19l48.1 0c8.18,-85.11 115.7,-285.67 230.31,-270.76l0.15 0c0.65,0.13 1.22,-0.39 1.3,-1 0.28,-0.75 -0.2,-1.47 -0.85,-1.6zm-231.11 704.45l-26 -108.67 -44.27 0c7.01,27.57 17.04,55.63 30.02,80.22 0.82,1.47 2.39,2.32 3.96,2.08 2.1,-0.28 3.75,-2.48 3.35,-4.72 -3.02,-23.01 -6.61,-45.21 -10,-67.37 9.35,34.81 22,68.82 39.02,100.13 0.45,1 1.45,1.45 2.35,1.09 1.24,-0.24 1.92,-1.57 1.57,-2.76zm44.74 -49.34c-4.51,-18.16 -9.23,-40.44 -13.3,-59.34l-16.82 0c6.53,20.17 15.4,42.64 23.23,61.86 0.8,1.85 2.58,2.77 4.27,2.33 2.02,-0.6 3.14,-2.77 2.62,-4.85zm5.61 63.93l-0.13 -0.27c-5.44,-15.2 -12.95,-28.78 -18.91,-43.37 -6.36,-14.57 -12.52,-28.89 -17.61,-43.89 -4.27,-11.21 -8.79,-24.08 -12.26,-35.74l-16.24 0c4.59,13.6 10.56,28.25 16.12,41.37 12.22,29.64 26.37,58.67 44.39,84.66 0.65,0.95 1.9,1.32 3.07,0.87 1.44,-0.52 2.09,-2.19 1.57,-3.64zm24.31 -521.52c-1.24,-1.87 -4.25,-2.27 -5.69,-0.75 -29.54,31.17 -47.41,64.33 -53.58,76.58l17.55 0c8.78,-20.61 28.57,-57.02 41.26,-70.13l0.13 -0.13c1.32,-1.47 1.57,-3.91 0.33,-5.57zm-133.57 -150.86c16.22,-26.64 40.32,-47.05 60.76,-71.73 0.72,-0.93 0.65,-2.37 -0.2,-3.17 -0.78,-0.87 -2.1,-0.87 -2.95,-0.07 -4.64,4.99 -9.51,9.63 -14.47,14.27 -2.17,-1.08 -7.66,1.04 -13.22,5.42 -4.39,3.47 -7.54,7.31 -8.66,10.08 -2.82,-0.65 -8.11,2.67 -12.87,8.76 -3.94,5.12 -6.24,10.48 -6.19,13.8 -2.99,0.25 -7.38,4.12 -11.1,10.21 -2.44,4.04 -4.02,7.96 -4.54,11.2 -2.42,1.65 -5.16,4.77 -7.71,8.83 -3.35,5.56 -5.04,11.21 -4.51,14.44 -0.8,1.37 -1.58,2.73 -2.25,4.12 0.15,-1.15 0.28,-2.19 0.4,-3.34 4.79,-37.71 11.73,-75.11 22.28,-111.17 10.58,-35.95 23.3,-72.21 45.11,-101.33l0.13 -0.13c1.13,-1.59 0.97,-3.77 -0.4,-5.23 -1.37,-1.53 -3.67,-1.6 -5.12,-0.08 -7.51,8.03 -13.87,16.99 -19.56,26.2 -2.49,-1.32 -7.73,3.59 -11.73,11.28 -3.67,6.96 -4.97,13.4 -3.62,15.85 0,0 -0.05,0.2 -0.18,0.13 -2.62,-1.13 -7.46,4.71 -10.41,12.55 -2.89,7.33 -3.41,14.1 -1.45,16.36 -0.12,0.13 -0.12,0.2 -0.2,0.33 -2.94,-1.08 -7.73,5.64 -10.68,15.12 -2.42,8.01 -2.67,14.97 -0.92,17.77 0.15,0.12 0,0.45 -0.13,0.4 -3.02,-1.08 -7.58,5.84 -10.28,15.25 -2.69,9.08 -2.5,17.12 0.07,18.68 -2.94,-0.32 -7.09,6.57 -9.23,15.92 -1.97,8.08 -1.77,15.04 0.13,17.84 -2.9,0.85 -6.09,7.61 -7.74,16.36 -1.57,8.56 -0.77,15.65 1.32,17.9 -2.69,1.42 -5.44,8.35 -6.44,16.99 -0.98,8.56 0.28,15.57 2.5,17.82 -2.22,2.52 -4.39,8.51 -5.29,15.67 -0.93,6.81 -0.35,12.73 0.97,16.05 -2.42,2.04 -4.27,8.93 -4.32,17.24 -0.2,6.61 0.77,12.26 2.47,15.49 -1.3,3.32 -2.22,8.16 -2.22,13.53 -0.12,6.96 1,12.93 2.75,16.05 -0.52,24.47 -0.17,50.52 1.12,75.05l52.85 0c0.39,-19.09 1.62,-39.9 3.54,-58.81 3.74,-33.66 9.28,-67.87 26.12,-96.66l0.13 -0.2c0.52,-1.05 0.45,-2.24 -0.33,-3.17 -0.97,-0.87 -2.37,-0.87 -3.27,0.2 -22.85,26.52 -32.89,62.5 -38.77,97.06 -1.05,6.76 -1.9,13.57 -2.67,20.34 1.43,-27.7 3.99,-55.27 10.33,-81.55 7.28,-31.94 21.8,-62.38 49.5,-79.43 0.85,-0.52 1.32,-1.67 1,-2.79 -0.33,-1.24 -1.65,-1.97 -2.76,-1.65 -1.75,0.52 -3.4,1.47 -5.09,2.17 -1.85,-2.25 -8.59,-0.57 -15.52,3.87 -6.62,4.32 -11.01,9.61 -10.56,12.53 0,0.15 -0.32,0.32 -0.32,0.07 -0.06,-0.35 -0.13,-0.67 -0.33,-0.87 -2.5,-2.04 -9.19,2.6 -14.8,10.48 -5.7,7.88 -7.94,16.11 -5.52,18.24 0.15,0.05 0.08,0.25 -0.05,0.25 -2.94,-1.2 -7.86,5.51 -10.93,14.85 -2.25,6.56 -2.77,12.6 -1.97,16.04 0,0.15 -0.13,0.28 -0.13,0.28 -2.29,7.56 -4.19,15.19 -5.96,22.95 0.65,-10.95 1.63,-21.95 3.2,-32.83 4.67,-31.29 14.1,-61.91 30.87,-88.06zm166.25 -87.23c-3.34,-1.6 -7.73,-1.99 -12.12,-0.92 -3.27,0.77 -5.89,2.37 -8.11,4.24 0.32,-2.8 0.32,-5.59 -0.45,-8.63 -1.04,-4.77 -3.41,-8.69 -6.29,-11.21 -14.3,-14.25 -4.47,-57.14 -7.81,-57.67 -3.27,-0.48 -2.1,42.3 -8.83,62.3 -1.37,3.72 -1.65,8.43 -0.45,13.2 1.18,4.69 3.53,8.68 6.47,11.28 2.82,2.44 6.24,3.57 9.43,2.57 0.85,-0.13 1.73,-0.52 2.43,-1.04 0,0.52 0,1.04 0.07,1.6 0.73,3.5 3.22,6.21 6.61,7.81 3.47,1.65 7.74,2.07 12.18,0.92 4.51,-1.04 8.26,-3.49 10.68,-6.48 13.42,-15.6 44.98,-37.8 43.09,-40.77 -1.89,-2.92 -28.55,29.81 -46.89,22.8zm61.01 -54.05c-2.02,-2.92 -27.3,26.61 -44.52,19.24 -3.27,-1.67 -7.25,-2.12 -11.25,-1.08 -2.22,0.67 -4.12,1.85 -5.91,3.32 -0.05,-1.19 0,-2.24 -0.25,-3.32 -1.05,-4.31 -3.41,-7.68 -6.34,-9.93 -14.42,-12.6 -3.1,-50.93 -6.49,-51.32 -3.47,-0.4 -3.42,37.73 -10.89,55.62 -1.57,3.32 -2.01,7.43 -0.92,11.68 1.05,4.24 3.41,7.76 6.36,10.01 2.95,2.12 6.42,3.12 9.83,2.32 1.5,-0.4 2.8,-1.2 3.97,-2.05 0,0.2 -0.05,0.47 0,0.65 1.06,3.64 3.54,6.51 6.76,8.16 3.27,1.54 7.26,2.06 11.13,0.95 3.99,-1.08 7.14,-3.52 9.11,-6.51 10.68,-15.97 41.45,-34.68 39.4,-37.73zm6.24 -36.92c-2.22,-2.32 -20.36,28.04 -36.81,24.4 -3.07,-0.85 -6.68,-0.67 -9.95,1 -1.63,0.65 -3.02,1.8 -4.19,2.92 0,-0.72 0.2,-1.47 0.2,-2.27 -0.39,-3.84 -1.97,-7.42 -4.27,-9.81 -11.06,-13.53 4.34,-45.54 1.4,-46.53 -3.02,-0.87 -8.26,32.81 -17.42,47.46 -1.85,2.79 -2.76,6.39 -2.37,10.28 0.25,3.92 1.89,7.44 4.19,9.88 2.34,2.45 5.23,3.8 8.38,3.57 2.35,-0.05 4.39,-1.3 6.09,-2.97 0,1.32 0.25,2.79 0.92,4.16 1.42,3.07 3.99,5.2 7.14,6.04 3.07,1 6.74,0.72 10.01,-0.85 3.34,-1.67 5.76,-4.32 7.09,-7.31 7.21,-15.96 31.74,-37.65 29.59,-39.97zm-10.88 -42.17c-3.72,-2.65 -15.57,26.85 -29.67,34.56 -2.62,1.37 -5.09,3.89 -6.86,7.33 -1.78,3.52 -2.42,7.24 -1.97,10.36 0.32,3.12 1.77,5.76 4.06,7.09 2.35,1.4 5.17,1.32 7.87,-0.05 2.75,-1.4 5.16,-3.91 7.01,-7.43 1.7,-3.45 2.34,-7.16 1.95,-10.28 -1.05,-16.69 20.23,-39.9 17.62,-41.57zm-258.46 769.49l-148.31 0c-10.11,0 -19.19,-0.8 -27.57,-2.32 0.05,0 0.05,0.08 0.05,0.08 24.37,36.18 62.55,63.65 101.25,82.06 5.96,33.04 13.43,63.58 16.1,65.98 2.77,2.4 40.75,-8.55 41.91,-12.05 1.11,-3.54 -15.52,-60.08 -15.52,-60.08 19.96,-34.28 26.13,-54.5 32.09,-73.66zm373.13 253.74c-37.45,14.78 -86.31,16.04 -126.19,5.44 -91.37,-28.44 -192.8,-82.34 -290.16,-37.6 -97.39,-44.74 -198.83,9.15 -290.17,37.6 -39.87,10.6 -88.73,9.34 -126.18,-5.44 -1.05,-0.39 -1.85,0.93 -0.92,1.65 53.9,41.72 129.4,60.86 197.37,36.35 65.27,-20.36 120.49,-89.53 197.82,-60 -61.21,23.93 -118.45,68.09 -162.66,109.78l32.16 26.38c40.15,-46.74 85.32,-93.47 136.47,-121.92 7.01,-4.12 11.2,-5.76 16.12,-6.04 4.89,0.28 9.08,1.92 16.04,6.04 51.2,28.45 96.39,75.18 136.54,121.92l32.14 -26.38c-44.19,-41.69 -101.43,-85.86 -162.66,-109.78 77.35,-29.52 132.55,39.64 197.85,60 67.97,24.5 143.48,5.36 197.34,-36.35 0.85,-0.72 0.15,-2.04 -0.9,-1.65zm-602.07 -62.98c-95.46,-23.16 -121.61,-112.66 -201.43,-151.51 -0.85,-0.47 -1.78,0.52 -1.25,1.32 25.15,41.37 38.78,104.75 111.27,143.8 0.59,0.35 0.28,1.27 -0.37,1.08 -104,-20.02 -147.67,7.83 -256.66,-41.45 -0.9,-0.37 -1.89,0.6 -1.3,1.47 35.83,51.97 120.82,87.51 237.25,77.7 41.91,-3.6 72.29,-21.21 112.5,-30.65 0.98,-0.24 0.98,-1.59 0,-1.77zm-199.99 -54.92c-36.28,-47.53 -25.92,-149.04 -107.84,-241.91 -0.67,-0.75 -1.84,-0.15 -1.65,0.77 15.64,68.45 11,146.14 53.83,203.08 0.4,0.6 -0.2,1.21 -0.77,0.8 -84.49,-66.49 -171.32,-86.5 -209.95,-140.35 -0.6,-0.73 -1.78,-0.33 -1.65,0.59 9.58,69.69 143.42,178.28 267.31,178.48 0.72,0 1.2,-0.87 0.72,-1.47zm-126.83 -126.35c-38.9,-72.14 7.59,-182.2 -36.56,-289.15 -0.45,-1.12 -2.17,-0.87 -2.17,0.33 -1.3,58.44 -37.58,145.62 -15.64,211.44 0.27,0.6 -0.52,0.93 -0.85,0.4 -55.87,-81.62 -100.18,-98.65 -137.11,-173.37 -0.53,-1.14 -2.25,-0.79 -2.3,0.38 -2.35,50.8 20.09,92.18 45.44,130.62 40.55,52.05 92.72,93.22 147.94,120.67 0.85,0.4 1.63,-0.45 1.25,-1.32zm-26.4 -439.3c-0.07,-1.2 -1.65,-1.6 -2.22,-0.53 -29.67,55.5 -82.51,99.64 -84.21,172.89 -0.08,0.75 -0.87,0.8 -0.98,0.15 -9.65,-56.57 -57.64,-119.94 -59.73,-201.84 0,-1.24 -1.78,-1.59 -2.22,-0.4 -39.5,106.5 17.29,207.45 77.73,290.87 0.65,0.87 1.94,0.35 1.94,-0.8 -2.47,-88.38 74.13,-154.33 69.69,-260.35zm37.73 -137.79c-28.05,38.93 -91.1,66.45 -114.15,122.59 -0.33,0.8 -1.3,0.6 -1.17,-0.33 9.16,-62.9 -15.12,-135.98 7.66,-219.57 0.32,-1.19 -1.18,-1.99 -1.9,-1.08 -34.44,42.37 -46.11,92.03 -48.01,145.67 -2.34,65.9 20.84,113.96 32.29,158.67 0.26,1.05 1.65,0.97 1.89,-0.07 16.53,-58.61 99.34,-93.9 125.29,-204.96 0.32,-1.2 -1.2,-1.89 -1.89,-0.93zm76.03 -130.87c-46.11,36.13 -116.5,70.93 -131.64,96.07 -0.25,0.55 -1.02,0.13 -0.9,-0.41l17.09 -82.01c7.66,-34.81 14.27,-68.15 33.51,-99.31 0.6,-0.92 -0.52,-2 -1.37,-1.32 -87.73,69.47 -74.9,170 -78.77,252.27 -0.05,0.87 1,1.27 1.57,0.67 51.68,-56.02 135.89,-88.65 161.94,-164.83 0.32,-0.93 -0.65,-1.73 -1.42,-1.12zm65.27 -125.96c-77.53,2.44 -134.49,67.74 -158.92,150.88 -0.16,0.48 0.52,0.88 0.9,0.6 106.82,-78.3 100.86,-111.86 158.67,-149.11 1.04,-0.67 0.59,-2.37 -0.65,-2.37zm893.98 968.44c-108.89,49.28 -152.63,21.43 -256.63,41.45 -0.65,0.2 -0.97,-0.73 -0.38,-1.08 72.49,-39.05 86.11,-102.43 111.27,-143.8 0.52,-0.8 -0.42,-1.8 -1.25,-1.32 -79.77,38.85 -105.9,128.36 -201.44,151.51 -1,0.18 -1,1.52 0,1.77 40.2,9.44 70.6,27.05 112.51,30.65 116.43,9.8 201.49,-25.73 237.24,-77.7 0.6,-0.87 -0.4,-1.85 -1.32,-1.47zm117.95 -185.76c-38.63,53.85 -125.46,73.86 -209.95,140.35 -0.52,0.41 -1.17,-0.2 -0.72,-0.8 42.77,-56.94 38.1,-134.63 53.77,-203.08 0.2,-0.93 -1,-1.52 -1.64,-0.77 -81.84,92.87 -71.56,194.37 -107.77,241.91 -0.47,0.6 -0.07,1.47 0.7,1.47 123.91,-0.2 257.71,-108.79 267.23,-178.48 0.15,-0.92 -1.05,-1.32 -1.62,-0.59zm55.07 -198.72c-0.05,-1.17 -1.78,-1.52 -2.3,-0.38 -36.93,74.72 -81.27,91.75 -137.03,173.37 -0.43,0.53 -1.13,0.2 -0.95,-0.4 21.95,-65.82 -14.25,-153 -15.64,-211.44 0,-1.2 -1.7,-1.45 -2.15,-0.33 -44.14,106.95 2.35,217.01 -36.48,289.15 -0.45,0.87 0.32,1.72 1.17,1.32 55.19,-27.45 107.39,-68.62 147.94,-120.67 25.33,-38.45 47.81,-79.82 45.44,-130.62zm-18.87 -219.05c-0.45,-1.19 -2.22,-0.85 -2.22,0.4 -2.09,81.9 -50.1,145.27 -59.71,201.84 -0.15,0.64 -0.93,0.59 -0.93,-0.15 -1.69,-73.26 -54.62,-117.4 -84.28,-172.89 -0.58,-1.07 -2.15,-0.67 -2.15,0.53 -4.46,106.02 72.09,171.97 69.59,260.35 0,1.15 1.37,1.67 2.04,0.8 60.36,-83.41 117.15,-184.37 77.65,-290.87zm-29.52 -60.78c-1.92,-53.64 -13.55,-103.3 -48.01,-145.67 -0.72,-0.92 -2.17,-0.12 -1.89,1.08 22.78,83.59 -1.52,156.67 7.74,219.57 0.12,0.93 -0.93,1.13 -1.25,0.33 -23.05,-56.14 -86.11,-83.66 -114.15,-122.59 -0.65,-0.97 -2.15,-0.28 -1.89,0.93 25.92,111.06 108.76,146.34 125.26,204.96 0.28,1.04 1.65,1.12 1.92,0.07 11.45,-44.71 34.63,-92.77 32.29,-158.67zm-150.29 -265.14c-0.88,-0.67 -1.97,0.4 -1.4,1.32 19.27,31.16 25.88,64.5 33.54,99.31l17.09 82.01c0.15,0.53 -0.65,0.96 -0.9,0.41 -15.14,-25.13 -85.46,-59.94 -131.64,-96.07 -0.73,-0.6 -1.78,0.2 -1.43,1.12 26.05,76.18 110.27,108.81 161.94,164.83 0.57,0.6 1.62,0.2 1.57,-0.67 -3.87,-82.27 8.95,-182.8 -78.77,-252.27zm-148.59 -38.97c-1.25,0 -1.65,1.7 -0.65,2.37 57.81,37.25 51.85,70.81 158.67,149.11 0.45,0.28 1.05,-0.13 0.9,-0.6 -24.42,-83.14 -81.39,-148.44 -158.92,-150.88z"/>
 </g>
</svg>
