<?xml version="1.0" encoding="UTF-8"?>
<!DOCTYPE svg PUBLIC "-//W3C//DTD SVG 1.1//EN" "http://www.w3.org/Graphics/SVG/1.1/DTD/svg11.dtd">
<!-- Creator: CorelDRAW 2020 (64-Bit) -->
<svg xmlns="http://www.w3.org/2000/svg" xml:space="preserve" width="6.17434in" height="1.46034in" version="1.1" style="shape-rendering:geometricPrecision; text-rendering:geometricPrecision; image-rendering:optimizeQuality; fill-rule:evenodd; clip-rule:evenodd"
viewBox="0 0 6181.89 1462.13"
 xmlns:xlink="http://www.w3.org/1999/xlink"
 xmlns:xodm="http://www.corel.com/coreldraw/odm/2003">
 <defs>
  <style type="text/css">
   <![CDATA[
    .fil0 {fill:#0086C5;fill-rule:nonzero}
    .fil1 {fill:#0085C5;fill-rule:nonzero}
   ]]>
  </style>
 </defs>
 <g id="Layer_x0020_1">
  <metadata id="CorelCorpID_0Corel-Layer"/>
  <polygon class="fil0" points="1676.73,1387.34 1690.59,1387.34 1690.59,227.99 1676.73,227.99 "/>
  <polygon class="fil1" points="2503.19,438.5 2317.15,920.99 2141.85,920.99 1957.1,438.5 2120.43,438.5 2232.39,770.59 2342.94,438.5 "/>
  <path class="fil1" d="M2854.89 794.78l0 -100.22c-20.91,1.72 -43.55,4.08 -67.89,7.08 -24.34,2.99 -42.82,6.48 -55.42,10.49 -15.47,4.86 -27.28,11.92 -35.44,21.2 -8.16,9.28 -12.24,21.49 -12.24,36.61 0,10 0.86,18.14 2.58,24.42 1.72,6.28 6.02,12.28 12.89,17.98 6.57,5.71 14.45,9.93 23.62,12.64 9.16,2.71 23.48,4.06 42.96,4.06 15.47,0 31.14,-3.13 47.05,-9.42 15.9,-6.28 29.86,-14.55 41.89,-24.84zm0 75.08c-8.32,6.31 -18.62,13.9 -30.93,22.77 -12.32,8.88 -23.93,15.91 -34.81,21.05 -15.18,6.87 -30.93,11.96 -47.26,15.26 -16.33,3.28 -34.24,4.94 -53.7,4.94 -45.84,0 -84.22,-14.17 -115.16,-42.54 -30.93,-28.35 -46.4,-64.58 -46.4,-108.69 0,-35.24 7.88,-64.02 23.64,-86.36 15.75,-22.35 38.08,-39.96 67.03,-52.84 28.64,-12.89 64.16,-22.05 106.55,-27.5 42.39,-5.44 86.37,-9.44 131.9,-12.03l0 -2.58c0,-26.63 -10.88,-45.04 -32.66,-55.21 -21.77,-10.16 -53.85,-15.26 -96.24,-15.26 -25.49,0 -52.7,4.51 -81.64,13.54 -28.93,9.02 -49.7,15.96 -62.3,20.83l-14.18 0 0 -116.43c16.33,-4.3 42.91,-9.39 79.71,-15.26 36.8,-5.87 73.68,-8.81 110.63,-8.81 87.94,0 151.46,13.53 190.56,40.6 39.1,27.06 58.65,69.53 58.65,127.4l0 328.24 -153.39 0 0 -51.13z"/>
  <path class="fil0" d="M3595.41 578.99l0 342 -155.11 0 0 -241.03c0,-23.48 -0.58,-43.46 -1.72,-59.94 -1.15,-16.47 -4.3,-29.85 -9.44,-40.18 -5.15,-10.3 -12.97,-17.82 -23.43,-22.55 -10.45,-4.73 -25.12,-7.09 -44.03,-7.09 -15.18,0 -29.94,3.08 -44.26,9.24 -14.32,6.17 -27.21,12.68 -38.67,19.55l0 342 -155.11 0 0 -482.49 155.11 0 0 53.28c26.6,-20.9 52.07,-37.23 76.38,-48.99 24.31,-11.74 51.2,-17.61 80.67,-17.61 31.74,0 59.81,7.09 84.12,21.27 24.3,14.17 43.32,35.02 57.07,62.51 30.87,-26.06 60.9,-46.54 90.08,-61.44 29.18,-14.9 57.78,-22.34 85.79,-22.34 52.07,0 91.61,15.61 118.64,46.82 27.03,31.23 40.55,76.2 40.55,134.91l0 314.08 -155.11 0 0 -241.03c0,-23.77 -0.5,-43.83 -1.5,-60.16 -1,-16.33 -4.08,-29.63 -9.23,-39.96 -4.88,-10.3 -12.61,-17.82 -23.21,-22.55 -10.6,-4.73 -25.51,-7.09 -44.68,-7.09 -12.89,0 -25.5,2.22 -37.82,6.65 -12.32,4.45 -27.35,11.82 -45.11,22.13z"/>
  <path class="fil0" d="M2103.82 1099.45l-2.03 0c-4.2,-1.22 -9.67,-2.46 -16.45,-3.76 -6.76,-1.27 -12.72,-1.92 -17.87,-1.92 -16.37,0 -28.25,3.63 -35.64,10.86 -7.38,7.26 -11.06,20.35 -11.06,39.3l0 7.72 68.84 0 0 32.08 -67.62 0 0 194.75 -38.18 0 0 -194.75 -25.78 0 0 -32.08 25.78 0 0 -7.52c0,-26.94 6.69,-47.63 20.1,-62.03 13.4,-14.43 32.76,-21.64 58.08,-21.64 8.53,0 16.2,0.41 23.04,1.22 6.83,0.81 13.1,1.76 18.78,2.85l0 34.92z"/>
  <path class="fil0" d="M2269.44 1265.15c0,-29.38 -5.76,-51.2 -17.26,-65.49 -11.51,-14.27 -27.49,-21.42 -47.92,-21.42 -20.71,0 -36.79,7.15 -48.22,21.42 -11.44,14.29 -17.17,36.11 -17.17,65.49 0,28.43 5.76,50 17.26,64.69 11.51,14.69 27.55,22.03 48.13,22.03 20.31,0 36.25,-7.28 47.83,-21.85 11.57,-14.54 17.36,-36.17 17.36,-64.87zm39.4 0c0,36.96 -9.48,66.14 -28.44,87.52 -18.95,21.39 -44.33,32.09 -76.15,32.09 -32.09,0 -57.57,-10.71 -76.45,-32.09 -18.89,-21.38 -28.33,-50.56 -28.33,-87.52 0,-36.96 9.44,-66.16 28.33,-87.61 18.88,-21.46 44.36,-32.19 76.45,-32.19 31.81,0 57.2,10.74 76.15,32.19 18.95,21.46 28.44,50.66 28.44,87.61z"/>
  <path class="fil0" d="M2509.37 1265.15c0,-29.38 -5.75,-51.2 -17.26,-65.49 -11.51,-14.27 -27.48,-21.42 -47.92,-21.42 -20.71,0 -36.79,7.15 -48.23,21.42 -11.44,14.29 -17.17,36.11 -17.17,65.49 0,28.43 5.76,50 17.26,64.69 11.51,14.69 27.56,22.03 48.13,22.03 20.31,0 36.25,-7.28 47.83,-21.85 11.57,-14.54 17.35,-36.17 17.35,-64.87zm39.4 0c0,36.96 -9.48,66.14 -28.43,87.52 -18.95,21.39 -44.33,32.09 -76.14,32.09 -32.08,0 -57.57,-10.71 -76.46,-32.09 -18.88,-21.38 -28.34,-50.56 -28.34,-87.52 0,-36.96 9.46,-66.16 28.34,-87.61 18.88,-21.46 44.37,-32.19 76.46,-32.19 31.81,0 57.19,10.74 76.14,32.19 18.95,21.46 28.43,50.66 28.43,87.61z"/>
  <path class="fil0" d="M2741.18 1322.62l0 -130.17c-10.29,-4.6 -19.49,-7.78 -27.61,-9.54 -8.13,-1.76 -17,-2.64 -26.6,-2.64 -21.4,0 -38.04,7.44 -49.96,22.33 -11.91,14.9 -17.87,36.01 -17.87,63.36 0,26.94 4.61,47.41 13.81,61.44 9.2,14 23.97,21.01 44.28,21.01 10.83,0 21.79,-2.39 32.89,-7.21 11.09,-4.81 21.45,-11.01 31.07,-18.59zm38.17 55.85l-38.17 0 0 -23.76c-10.97,9.46 -22.41,16.84 -34.33,22.12 -11.91,5.29 -24.85,7.93 -38.79,7.93 -27.07,0 -48.56,-10.43 -64.47,-31.28 -15.9,-20.85 -23.86,-49.75 -23.86,-86.71 0,-19.22 2.75,-36.35 8.24,-51.38 5.48,-15.03 12.89,-27.82 22.23,-38.38 9.21,-10.29 19.94,-18.14 32.18,-23.56 12.26,-5.42 24.95,-8.12 38.08,-8.12 11.91,0 22.47,1.26 31.68,3.76 9.2,2.51 18.88,6.39 29.04,11.67l0 -98.29 38.17 0 0 315.98z"/>
  <path class="fil0" d="M3137.79 1313.07c0,20.71 -8.57,37.7 -25.68,50.97 -17.15,13.28 -40.52,19.91 -70.17,19.91 -16.79,0 -32.18,-2 -46.21,-6 -14,-3.98 -25.74,-8.35 -35.22,-13.09l0 -42.85 2.04 0c12.05,9.07 25.43,16.29 40.2,21.63 14.75,5.35 28.9,8.01 42.43,8.01 16.79,0 29.93,-2.7 39.4,-8.12 9.48,-5.42 14.23,-13.95 14.23,-25.59 0,-8.94 -2.58,-15.7 -7.72,-20.3 -5.14,-4.6 -15.03,-8.53 -29.65,-11.78 -5.4,-1.22 -12.49,-2.63 -21.21,-4.26 -8.75,-1.63 -16.69,-3.39 -23.87,-5.28 -19.89,-5.28 -34,-13.02 -42.34,-23.25 -8.31,-10.22 -12.49,-22.78 -12.49,-37.67 0,-9.34 1.93,-18.14 5.8,-26.4 3.85,-8.25 9.7,-15.64 17.56,-22.13 7.58,-6.36 17.22,-11.4 28.94,-15.14 11.7,-3.71 24.8,-5.58 39.29,-5.58 13.53,0 27.24,1.67 41.13,4.98 13.86,3.32 25.41,7.34 34.62,12.07l0 40.82 -2.04 0c-9.75,-7.17 -21.59,-13.23 -35.53,-18.18 -13.94,-4.93 -27.62,-7.41 -41.02,-7.41 -13.95,0 -25.73,2.68 -35.34,8.03 -9.62,5.35 -14.41,13.3 -14.41,23.85 0,9.34 2.91,16.38 8.73,21.12 5.68,4.74 14.89,8.6 27.61,11.58 7.04,1.63 14.92,3.25 23.66,4.87 8.72,1.63 16,3.12 21.82,4.47 17.73,4.06 31.41,11.03 41.02,20.91 9.61,10.02 14.42,23.29 14.42,39.8z"/>
  <path class="fil0" d="M3332.65 1239.77c-0.14,-20.03 -5.17,-35.54 -15.12,-46.5 -9.95,-10.97 -25.09,-16.45 -45.39,-16.45 -20.45,0 -36.72,6.02 -48.84,18.07 -12.11,12.05 -18.99,27.01 -20.61,44.88l129.96 0zm37.16 29.24l-167.13 0c0,13.94 2.1,26.08 6.31,36.45 4.2,10.34 9.94,18.84 17.25,25.48 7.04,6.5 15.4,11.37 25.09,14.61 9.68,3.26 20.34,4.88 31.98,4.88 15.44,0 30.97,-3.07 46.6,-9.23 15.63,-6.16 26.77,-12.23 33.41,-18.18l2.02 0 0 41.62c-12.87,5.42 -25.99,9.95 -39.4,13.62 -13.39,3.66 -27.47,5.48 -42.22,5.48 -37.64,0 -67.01,-10.17 -88.14,-30.56 -21.11,-20.36 -31.68,-49.3 -31.68,-86.8 0,-37.1 10.11,-66.54 30.34,-88.33 20.24,-21.8 46.87,-32.7 79.9,-32.7 30.6,0 54.19,8.94 70.78,26.8 16.58,17.87 24.87,43.25 24.87,76.15l0 20.71z"/>
  <path class="fil0" d="M3582.94 1364.24c-12.71,6.1 -24.82,10.83 -36.24,14.23 -11.44,3.38 -23.59,5.07 -36.46,5.07 -16.37,0 -31.4,-2.41 -45.08,-7.22 -13.67,-4.78 -25.38,-12.08 -35.13,-21.82 -9.89,-9.75 -17.52,-22.06 -22.95,-36.96 -5.42,-14.89 -8.12,-32.28 -8.12,-52.18 0,-37.1 10.19,-66.2 30.55,-87.32 20.39,-21.12 47.29,-31.68 80.72,-31.68 13,0 25.78,1.83 38.28,5.48 12.53,3.66 24.01,8.12 34.42,13.4l0 42.44 -2.03 0c-11.64,-9.07 -23.65,-16.04 -36.06,-20.92 -12.36,-4.87 -24.46,-7.31 -36.23,-7.31 -21.66,0 -38.76,7.28 -51.27,21.82 -12.53,14.57 -18.8,35.92 -18.8,64.08 0,27.34 6.13,48.36 18.4,63.04 12.23,14.7 29.47,22.03 51.67,22.03 7.72,0 15.56,-1.01 23.55,-3.04 8,-2.03 15.17,-4.67 21.53,-7.92 5.56,-2.85 10.76,-5.85 15.64,-9.05 4.88,-3.17 8.74,-5.91 11.57,-8.21l2.03 0 0 42.03z"/>
  <path class="fil0" d="M3807.44 1378.47l-38.18 0 0 -25.19c-12.86,10.16 -25.17,17.94 -36.95,23.36 -11.79,5.4 -24.77,8.12 -39,8.12 -23.82,0 -42.37,-7.28 -55.63,-21.85 -13.27,-14.53 -19.91,-35.89 -19.91,-64.05l0 -147.22 38.18 0 0 129.15c0,11.51 0.54,21.36 1.62,29.55 1.08,8.2 3.38,15.19 6.9,21.01 3.66,5.96 8.4,10.29 14.23,13 5.82,2.72 14.28,4.07 25.38,4.07 9.89,0 20.67,-2.58 32.4,-7.72 11.69,-5.14 22.62,-11.71 32.78,-19.69l0 -169.36 38.18 0 0 226.83z"/>
  <path class="fil0" d="M4011.64 1193.26l-2.03 0c-5.68,-1.35 -11.21,-2.33 -16.57,-2.95 -5.33,-0.6 -11.67,-0.9 -18.99,-0.9 -11.77,0 -23.15,2.61 -34.12,7.81 -10.97,5.22 -21.51,11.96 -31.68,20.21l0 161.04 -38.18 0 0 -226.83 38.18 0 0 33.5c15.16,-12.18 28.55,-20.82 40.12,-25.88 11.58,-5.09 23.37,-7.62 35.42,-7.62 6.64,0 11.46,0.17 14.43,0.5 2.98,0.35 7.46,0.99 13.41,1.94l0 39.19z"/>
  <path class="fil0" d="M4073.69 1378.47l-38.18 0 0 -226.83 38.18 0 0 226.83zm2.44 -264.81l-43.06 0 0 -39.6 43.06 0 0 39.6z"/>
  <path class="fil0" d="M4254.54 1376.43c-7.18,1.9 -15,3.45 -23.47,4.67 -8.46,1.22 -16.01,1.83 -22.64,1.83 -23.15,0 -40.76,-6.23 -52.8,-18.69 -12.05,-12.44 -18.07,-32.42 -18.07,-59.9l0 -120.62 -25.8 0 0 -32.08 25.8 0 0 -65.19 38.18 0 0 65.19 78.8 0 0 32.08 -78.8 0 0 103.35c0,11.92 0.28,21.23 0.82,27.92 0.54,6.72 2.44,12.97 5.68,18.79 2.98,5.41 7.07,9.38 12.28,11.88 5.21,2.51 13.17,3.75 23.86,3.75 6.24,0 12.72,-0.91 19.5,-2.75 6.76,-1.82 11.63,-3.35 14.61,-4.56l2.04 0 0 34.32z"/>
  <polygon class="fil0" points="4482.28,1151.64 4349.89,1462.13 4309.06,1462.13 4351.3,1367.51 4260.95,1151.64 4302.37,1151.64 4372.01,1319.78 4442.28,1151.64 "/>
  <path class="fil0" d="M4791.78 1322.62l0 -63.16c-11.64,0.68 -25.34,1.7 -41.12,3.05 -15.77,1.36 -28.25,3.32 -37.46,5.89 -10.97,3.11 -19.85,7.96 -26.62,14.51 -6.76,6.58 -10.16,15.61 -10.16,27.12 0,13 3.94,22.78 11.79,29.33 7.84,6.59 19.85,9.85 35.96,9.85 13.4,0 25.63,-2.59 36.73,-7.82 11.1,-5.2 21.39,-11.46 30.88,-18.77zm37.98 55.85l-37.98 0 0 -24.18c-3.39,2.3 -7.96,5.53 -13.71,9.66 -5.75,4.13 -11.34,7.4 -16.76,9.84 -6.36,3.1 -13.67,5.71 -21.93,7.8 -8.25,2.09 -17.93,3.16 -29.02,3.16 -20.45,0 -37.77,-6.78 -51.98,-20.31 -14.22,-13.54 -21.33,-30.8 -21.33,-51.78 0,-17.19 3.69,-31.09 11.06,-41.72 7.39,-10.62 17.9,-18.99 31.58,-25.08 13.81,-6.09 30.4,-10.23 49.77,-12.39 19.35,-2.16 40.12,-3.79 62.33,-4.88l0 -5.89c0,-8.66 -1.53,-15.84 -4.56,-21.53 -3.05,-5.68 -7.41,-10.15 -13.1,-13.4 -5.4,-3.11 -11.91,-5.22 -19.49,-6.3 -7.58,-1.08 -15.51,-1.63 -23.77,-1.63 -10.02,0 -21.17,1.33 -33.49,3.95 -12.32,2.66 -25.05,6.47 -38.17,11.48l-2.03 0 0 -38.78c7.44,-2.03 18.19,-4.27 32.27,-6.71 14.07,-2.44 27.96,-3.65 41.65,-3.65 15.97,0 29.87,1.33 41.72,3.95 11.84,2.65 22.08,7.15 30.75,13.51 8.54,6.23 15.03,14.29 19.51,24.17 4.46,9.88 6.71,22.13 6.71,36.75l0 153.94z"/>
  <path class="fil0" d="M5080.45 1378.47l-38.18 0 0 -129.16c0,-10.42 -0.61,-20.2 -1.83,-29.35 -1.22,-9.13 -3.45,-16.28 -6.7,-21.42 -3.38,-5.69 -8.26,-9.91 -14.62,-12.7 -6.36,-2.76 -14.62,-4.15 -24.77,-4.15 -10.42,0 -21.32,2.57 -32.69,7.72 -11.38,5.14 -22.28,11.7 -32.7,19.69l0 169.37 -38.18 0 0 -226.83 38.18 0 0 25.18c11.92,-9.88 24.23,-17.6 36.96,-23.15 12.72,-5.55 25.8,-8.33 39.19,-8.33 24.51,0 43.19,7.38 56.05,22.14 12.86,14.75 19.29,36.01 19.29,63.76l0 147.23z"/>
  <path class="fil0" d="M5279.77 1322.62l0 -63.16c-11.65,0.68 -25.36,1.7 -41.13,3.05 -15.78,1.36 -28.25,3.32 -37.46,5.89 -10.97,3.11 -19.84,7.96 -26.6,14.51 -6.77,6.58 -10.15,15.61 -10.15,27.12 0,13 3.92,22.78 11.77,29.33 7.86,6.59 19.84,9.85 35.94,9.85 13.41,0 25.65,-2.59 36.75,-7.82 11.1,-5.2 21.39,-11.46 30.88,-18.77zm37.97 55.85l-37.97 0 0 -24.18c-3.39,2.3 -7.96,5.53 -13.7,9.66 -5.76,4.13 -11.35,7.4 -16.76,9.84 -6.36,3.1 -13.68,5.71 -21.93,7.8 -8.26,2.09 -17.94,3.16 -29.04,3.16 -20.45,0 -37.78,-6.78 -51.99,-20.31 -14.22,-13.54 -21.32,-30.8 -21.32,-51.78 0,-17.19 3.67,-31.09 11.07,-41.72 7.36,-10.62 17.9,-18.99 31.57,-25.08 13.81,-6.09 30.39,-10.23 49.75,-12.39 19.35,-2.16 40.13,-3.79 62.34,-4.88l0 -5.89c0,-8.66 -1.53,-15.84 -4.58,-21.53 -3.04,-5.68 -7.4,-10.15 -13.1,-13.4 -5.41,-3.11 -11.91,-5.22 -19.49,-6.3 -7.58,-1.08 -15.5,-1.63 -23.76,-1.63 -10.01,0 -21.18,1.33 -33.51,3.95 -12.31,2.66 -25.03,6.47 -38.17,11.48l-2.03 0 0 -38.78c7.44,-2.03 18.2,-4.27 32.29,-6.71 14.08,-2.44 27.96,-3.65 41.63,-3.65 15.97,0 29.87,1.33 41.74,3.95 11.82,2.65 22.08,7.15 30.75,13.51 8.54,6.23 15.03,14.29 19.5,24.17 4.46,9.88 6.7,22.13 6.7,36.75l0 153.94z"/>
  <polygon class="fil0" points="5379.19,1378.47 5417.37,1378.47 5417.37,1062.49 5379.19,1062.49 "/>
  <polygon class="fil0" points="5676.58,1151.64 5544.18,1462.13 5503.37,1462.13 5545.61,1367.51 5455.24,1151.64 5496.66,1151.64 5566.32,1319.78 5636.58,1151.64 "/>
  <path class="fil0" d="M5876.11 1313.07c0,20.71 -8.57,37.7 -25.68,50.97 -17.13,13.28 -40.52,19.91 -70.17,19.91 -16.79,0 -32.18,-2 -46.21,-6 -13.99,-3.98 -25.74,-8.35 -35.22,-13.09l0 -42.85 2.04 0c12.05,9.07 25.45,16.29 40.2,21.63 14.76,5.35 28.9,8.01 42.45,8.01 16.79,0 29.91,-2.7 39.38,-8.12 9.48,-5.42 14.23,-13.95 14.23,-25.59 0,-8.94 -2.58,-15.7 -7.72,-20.3 -5.14,-4.6 -15.03,-8.53 -29.64,-11.78 -5.42,-1.22 -12.5,-2.63 -21.22,-4.26 -8.75,-1.63 -16.69,-3.39 -23.86,-5.28 -19.91,-5.28 -34.02,-13.02 -42.34,-23.25 -8.34,-10.22 -12.49,-22.78 -12.49,-37.67 0,-9.34 1.93,-18.14 5.79,-26.4 3.87,-8.25 9.72,-15.64 17.56,-22.13 7.58,-6.36 17.22,-11.4 28.94,-15.14 11.7,-3.71 24.8,-5.58 39.29,-5.58 13.54,0 27.24,1.67 41.13,4.98 13.86,3.32 25.41,7.34 34.62,12.07l0 40.82 -2.04 0c-9.75,-7.17 -21.59,-13.23 -35.53,-18.18 -13.94,-4.93 -27.61,-7.41 -41.02,-7.41 -13.95,0 -25.73,2.68 -35.34,8.03 -9.6,5.35 -14.42,13.3 -14.42,23.85 0,9.34 2.91,16.38 8.74,21.12 5.68,4.74 14.89,8.6 27.61,11.58 7.04,1.63 14.92,3.25 23.66,4.87 8.72,1.63 16,3.12 21.82,4.47 17.75,4.06 31.41,11.03 41.02,20.91 9.62,10.02 14.42,23.29 14.42,39.8z"/>
  <path class="fil0" d="M5956.84 1378.47l-38.18 0 0 -226.83 38.18 0 0 226.83zm2.43 -264.81l-43.04 0 0 -39.6 43.04 0 0 39.6z"/>
  <path class="fil0" d="M6181.89 1315.96c-0.76,19.41 -9.31,35.43 -25.63,48.08 -17.13,13.28 -40.51,19.91 -70.16,19.91 -16.79,0 -32.18,-2 -46.21,-6 -14,-3.98 -25.75,-8.35 -35.22,-13.09l0 -42.85 2.03 0c12.05,9.07 25.45,16.29 40.21,21.63 14.75,5.35 28.91,8.01 42.43,8.01 16.79,0 29.92,-2.7 39.4,-8.12 9.48,-5.42 14.21,-13.95 14.21,-25.59 0,-8.94 -2.57,-15.7 -7.71,-20.3 -5.14,-4.6 -15.03,-8.53 -29.65,-11.78 -5.42,-1.22 -12.49,-2.63 -21.21,-4.26 -8.75,-1.63 -16.69,-3.39 -23.87,-5.28 -19.89,-5.28 -34.02,-13.02 -42.34,-23.25 -8.33,-10.22 -12.49,-22.78 -12.49,-37.67 0,-9.34 1.94,-18.14 5.78,-26.4 3.87,-8.25 9.72,-15.64 17.58,-22.13 7.58,-6.36 17.22,-11.4 28.94,-15.14 11.69,-3.71 24.8,-5.58 39.29,-5.58 13.53,0 27.22,1.67 41.11,4.98 13.86,3.32 25.41,7.34 34.62,12.07l0 40.82 -2.02 0c-9.75,-7.17 -21.6,-13.23 -35.54,-18.18 -13.93,-4.93 -27.62,-7.41 -41.02,-7.41 -13.93,0 -25.71,2.68 -35.32,8.03 -9.62,5.35 -14.42,13.3 -14.42,23.85 0,9.34 2.91,16.38 8.72,21.12 5.7,4.74 14.9,8.6 27.63,11.58 7.03,1.63 14.92,3.25 23.66,4.87 8.72,1.63 16,3.12 21.82,4.47 17.73,4.06 31.41,11.03 41.02,20.91 9,9.4 13.79,21.64 14.36,36.75l0 5.95z"/>
  <path class="fil1" d="M892.34 92.22l13.67 0c12.78,0 22.33,-2.52 28.67,-7.58 6.34,-5.05 9.54,-12.41 9.54,-22.03 0,-9.73 -2.68,-16.95 -7.99,-21.59 -5.31,-4.64 -13.65,-6.96 -25,-6.96l-18.89 0 0 58.16zm93.82 -31.09c0,21.08 -6.58,37.21 -19.78,48.39 -13.17,11.18 -31.89,16.74 -56.19,16.74l-17.84 0 0 69.69 -41.55 0 0 -195.95 62.58 0c23.78,0 41.85,5.12 54.22,15.37 12.38,10.23 18.57,25.48 18.57,45.76zm-237.96 134.82l-40.85 0 0 -195.95 112.31 0 0 34.06 -71.46 0 0 50.52 66.49 0 0 33.92 -66.49 0 0 77.45zm-112.91 0l-47.31 0 -26.52 -102.92c-1,-3.67 -2.67,-11.23 -5.04,-22.7 -2.34,-11.51 -3.71,-19.19 -4.07,-23.13 -0.54,4.84 -1.87,12.6 -4.02,23.26 -2.14,10.68 -3.82,18.32 -4.97,22.86l-26.39 102.65 -47.16 0 -50 -195.95 40.86 0 25.05 106.97c4.39,19.74 7.56,36.85 9.54,51.33 0.52,-5.09 1.75,-12.98 3.69,-23.66 1.89,-10.68 3.71,-18.96 5.41,-24.85l28.55 -109.79 39.28 0 28.55 109.79c1.25,4.89 2.79,12.4 4.69,22.51 1.87,10.1 3.29,18.76 4.29,26 0.87,-6.99 2.32,-15.67 4.27,-26.08 1.97,-10.38 3.76,-18.81 5.36,-25.25l24.93 -106.97 40.87 0 -49.85 195.95zm-101.61 681.52c-76.13,0 -125.01,18.07 -138.33,23.68 -0.79,0.33 -1.42,-0.77 -0.85,-1.4 83.7,-86.96 181.63,-82.14 205.18,-82.14 23.86,0 278.51,0 278.51,0 14.03,0 25.41,13.4 25.41,29.92 0,16.54 -11.38,29.94 -25.41,29.94 0,0 -279.48,0 -344.51,0zm62.73 76.98c-82.02,0 -105.92,-46.61 -230.08,-15.84 -0.88,0.2 -1.45,-0.95 -0.73,-1.44 69.21,-47.49 144.5,-43.17 174.97,-43.17 23.83,0 337.62,0 337.62,0 14.03,0 25.41,13.39 25.41,29.91 0,16.54 -11.38,29.95 -25.41,29.95 0,0 -216.83,0.6 -281.78,0.6zm5.84 75.78c-84.22,0 -90.95,-62.13 -215.76,-76.13 -0.87,-0.1 -0.97,-1.4 -0.13,-1.6 102.56,-25.65 140.71,17.85 200.57,17.85 23.83,0 291.26,0 291.26,0 14.03,0 25.41,13.39 25.41,29.94 0,16.52 -11.38,29.94 -25.41,29.94 0,0 -210.92,0 -275.94,0zm-18.29 -229.13c-67.78,0 -123.96,29.57 -137.11,37.03 -0.73,0.39 -1.47,-0.45 -1,-1.15 11,-16.2 70.37,-95.74 172.44,-95.74 23.83,0 259.9,0 259.9,0 14.03,0 25.41,13.39 25.41,29.94 0,16.52 -11.38,29.92 -25.41,29.92 0,0 -229.21,0 -294.23,0zm372.81 -165.31c-2.62,-2.64 -6.56,-4.56 -11.05,-5.12 -3.35,-0.45 -6.37,0.07 -9.03,1.08 1.14,-2.45 2.14,-5.12 2.54,-8.21 0.65,-4.87 -0.27,-9.36 -2.09,-12.8 -8.38,-18.36 15.59,-55.12 12.57,-56.76 -2.89,-1.6 -16.52,38.93 -29.74,55.29 -2.55,2.99 -4.39,7.28 -4.97,12.2 -0.47,4.84 0.33,9.44 2.14,12.8 1.84,3.32 4.67,5.64 7.93,5.83 0.93,0.13 1.83,0.05 2.7,-0.15 -0.2,0.47 -0.4,1 -0.47,1.47 -0.52,3.59 0.85,6.97 3.54,9.68 2.61,2.78 6.46,4.64 11.01,5.16 4.64,0.6 8.95,-0.32 12.3,-2.32 17.94,-9.8 55.14,-19.49 54.35,-22.95 -0.7,-3.45 -36.99,17.84 -51.73,4.79zm27.45 -26.77c-2.5,-2.72 -6.04,-4.59 -10.16,-4.99 -2.37,-0.12 -4.51,0.28 -6.69,1.08 0.33,-1.15 0.8,-2.12 0.92,-3.25 0.45,-4.39 -0.6,-8.43 -2.55,-11.55 -9.11,-16.92 14.65,-48.78 11.58,-50.38 -3.07,-1.59 -16.12,34.14 -29.32,48.26 -2.61,2.52 -4.46,6.24 -4.94,10.6 -0.37,4.39 0.6,8.49 2.49,11.6 2.1,3.04 4.99,5.24 8.46,5.72 1.5,0.12 3.07,-0.15 4.47,-0.55 -0.08,0.23 -0.28,0.47 -0.23,0.67 -0.3,3.72 1.05,7.31 3.47,9.96 2.52,2.64 6.12,4.49 10.11,4.82 4.12,0.43 7.92,-0.7 10.8,-2.89 15.44,-11.13 50.8,-17.77 49.88,-21.36 -0.83,-3.45 -34.68,15.24 -48.31,2.27zm24.03 -24.81c-2.55,-1.92 -6.03,-2.99 -9.68,-2.59 -1.77,0.07 -3.42,0.6 -4.92,1.27 0.25,-0.75 0.73,-1.32 0.97,-2.07 0.98,-3.76 0.65,-7.61 -0.6,-10.73 -5.77,-16.56 19.79,-41.12 17.29,-43.09 -2.47,-1.88 -19.04,27.85 -32.66,38.33 -2.62,1.9 -4.71,4.97 -5.77,8.81 -1.12,3.72 -0.8,7.61 0.52,10.68 1.37,3.09 3.59,5.44 6.61,6.36 2.3,0.73 4.57,0.28 6.74,-0.67 -0.45,1.27 -0.72,2.72 -0.6,4.25 0.35,3.39 1.97,6.24 4.67,8.23 2.54,1.99 6.01,2.97 9.63,2.72 3.71,-0.41 6.93,-2 9.15,-4.37 12.25,-12.43 42.77,-24 41.52,-27 -1.32,-2.99 -28.74,19.09 -42.89,9.88zm47.28 -53.25c-2.57,-3.77 -23.9,19.61 -39.69,21.89 -2.95,0.4 -6.22,1.84 -8.96,4.44 -2.94,2.64 -4.84,5.89 -5.51,9 -0.73,3.07 -0.25,6.04 1.37,8.08 1.77,2.12 4.47,3.07 7.49,2.72 2.99,-0.33 6.14,-1.77 9.11,-4.49 2.72,-2.6 4.64,-5.85 5.34,-8.88 4.79,-16.04 32.75,-30.32 30.86,-32.76zm-441.5 31.69c-0.65,2.32 -5.24,20.36 -5.24,20.36 -1.29,0.72 -6.81,-0.47 -8.26,-0.6 -10.52,-1 -19.93,-10.16 -15.89,-21.08 3.3,-8.94 10.08,-9.88 18.67,-10.28 3.54,-0.15 9.98,0.7 13.18,2.92 0,0 -1.27,4.12 -2.45,8.68zm-12.1 54.45c-0.35,2.05 -0.67,4.09 -1,6.16 -6.54,-4.12 -10.41,-13.52 -7.26,-20.96 2.42,-5.61 8.41,-7.11 12.82,-7.36 -1.57,7.36 -3.14,14.73 -4.56,22.16zm-9.44 67.29c-0.85,4.62 -7.09,5.24 -11.35,6.48 -12.38,3.72 -24.08,2.12 -27.9,-12.65 -4.12,-15.87 7.86,-22.49 20.71,-25.61 7.02,-1.67 13.47,-0.27 18.27,5.64 1.19,1.47 2.62,2.79 2.94,4.19 0,0 -1.9,17.57 -2.67,21.94zm-38.97 -77.9c9.55,-2.32 19.44,-5.92 26.77,3.49 7.74,9.88 5.19,25.73 -7.26,29.92 -8.18,2.77 -18.07,5.16 -25.08,-1.55 -9.15,-8.73 -8.51,-28.62 5.57,-31.86zm-9.36 -51.32c10.08,-2.45 20.49,-6.17 28.22,3.71 8.05,10.33 5.36,27.05 -7.66,31.42 -8.64,2.85 -19.06,5.36 -26.39,-1.65 -9.63,-9.16 -8.91,-30.04 5.83,-33.48zm-9.36 110.91c-2.62,9.23 -10.23,10.63 -18.21,12.55 -5.24,-6.44 -19.32,-22.68 -19.57,-24.63 -0.07,-0.64 0,-1.34 0.3,-2.22 0.65,-1.95 2.9,-3.79 4.52,-4.87 4.79,-3.09 14.99,-5.44 20.51,-4.28 9.88,2.12 15.07,14.17 12.45,23.45zm-50.06 -47.41c-7.19,-25.52 35.63,-36.65 42.25,-11.58 6.81,25.7 -36.4,36.65 -42.25,11.58zm-6.29 -50.98c-7.33,-25.4 35.71,-36.53 42.33,-11.6 6.81,25.8 -36.49,36.73 -42.33,11.6zm-6.01 -50.13c-7.01,-23.65 33.38,-34.14 39.55,-10.8 6.36,24.01 -34.07,34.33 -39.55,10.8zm-4.12 96.47c-1.99,1.2 -2.74,1.82 -3.4,1.82l-19.24 -20.91c0.25,-0.6 6.19,-4.92 8.16,-6.04 15.97,-8.86 29.12,16.52 14.47,25.13zm-36.48 -47.06c-9.51,-20.96 25.07,-43.69 35.56,-21.08 9.63,20.81 -24.95,43.96 -35.56,21.08zm29.06 -66.37c10.96,19.44 -22,41.09 -31.44,20.21 -8.38,-18.02 20.92,-39.02 31.44,-20.21zm-27.62 -45.29c4.84,-4.27 10.49,-6.64 16.25,-3.85 9.23,4.44 9.48,18.32 1.42,23.81 -3.67,2.51 -9.88,5.64 -14.4,4.51 -9.88,-2.51 -11.77,-16.96 -3.27,-24.47zm1.25 -41.63c3.99,-2.72 9.3,-5.14 13.87,-3.27 8.33,3.43 8.03,15.52 1.29,20.36 -3.06,2.19 -8.63,4.92 -12.37,3.92 -8.44,-2.12 -10.53,-15.79 -2.79,-21.01zm22.13 -59.34c4.94,-2.69 12.11,-3.81 16.54,1.17 5.23,5.87 3.54,14.8 -3.32,18.31 -5.31,2.64 -12.45,3.65 -16.64,-1.27 -4.59,-5.29 -3.64,-14.42 3.42,-18.22zm-3.95 45.06c-3.99,-14.84 21.01,-21.88 25.08,-6.76 4.51,14.68 -21.08,21.96 -25.08,6.76zm40.35 25.93c5.81,16.04 -21.36,25.13 -26.67,9.28 -5.42,-16.04 21.88,-25.17 26.67,-9.28zm3.39 -78.18c5.19,-2.07 11.85,-4.31 17.62,0 7.21,5.39 5.64,17.52 -2.62,21.31 -5.44,2.44 -12.38,4.1 -17.21,-0.23 -6.17,-5.49 -6.49,-17.56 2.22,-21.08zm-4.76 134.27c-7.34,1.73 -15.02,4.64 -21.11,-1.65 -7.78,-8.03 -5.54,-22.08 4.99,-25.92 6.81,-2.59 15.44,-4.04 21.01,1.65 7.13,7.32 6.37,23.21 -4.89,25.92zm0.12 -81.94c-4.71,-15.92 21.21,-24.08 26.2,-8.64 5.09,15.87 -21.76,24.28 -26.2,8.64zm43.42 29.17c6.08,18.16 -24.63,27.85 -30.27,9.96 -5.69,-18.32 25.21,-28 30.27,-9.96zm1.64 -48.66c5.39,-1.47 11.14,-0.95 15.25,3.52 6.29,6.76 4.12,18.29 -5.19,20.02 -4.36,0.79 -11.1,0.47 -14.52,-2.52 -6.16,-5.44 -5.87,-18.24 4.46,-21.01zm26.18 38.13c9.88,0 14.88,14.52 9.11,21.74 -3.47,4.39 -10.93,4.64 -16.05,3.84 -9.43,-1.44 -15.47,-13.57 -9.1,-21.81 3.87,-4.96 10.47,-3.77 16.04,-3.77zm-47.46 59.79c-6.11,-20.89 29.39,-30.22 34.83,-9.49 5.49,21.12 -30.19,30.37 -34.83,9.49zm21.74 26.72c9.69,-1 19.79,-3.25 25.72,6.89 6.22,10.75 1.57,25.68 -10.98,28.2 -8.28,1.73 -18.29,2.52 -24.18,-4.79 -7.73,-9.65 -4.64,-28.97 9.44,-30.29zm49.28 -46.51c11.96,4.94 16,19.07 7.56,26.95 -4.51,4.12 -12.78,3.32 -18.34,2.2 -11.13,-2.2 -18.41,-18.91 -8.66,-26.85 5.02,-4.07 13.98,-4.57 19.44,-2.3zm18.81 50.35c7.54,9.21 4.72,25.53 -8.43,26.33 -6.89,0.4 -15.87,-0.4 -20.51,-6.04 -7.46,-9 -4.64,-25.92 8.51,-26.37 6.89,-0.28 15.79,0.45 20.43,6.08zm50.88 -166.28c-0.72,-1.05 -2.01,-1.65 -3.34,-1.27 -1.58,0.55 -2.62,2.27 -2.02,3.8 30.07,80.77 -8.31,120.54 -24.35,177.11 -19.27,-45.96 44.51,-89.18 11.65,-172.94 -0.45,-1.05 -1.32,-1.9 -2.49,-2.12 -1.63,-0.18 -3.2,0.47 -3.47,2.66 -0.85,5.89 -4.72,52.33 -42.37,79.5 -3.87,-8.88 -9.56,-18.16 -17.54,-25.48 -3.47,-15.65 -13.67,-37.1 -35.16,-43.49 -3.22,-8.08 -9.7,-19.69 -22.13,-25.9 -11.73,-5.83 -25.3,-5.31 -40.34,1.52 -18.21,2.12 -30.72,9.21 -37.33,21.06 -6.21,11.23 -5.12,23.41 -3.02,31.69 -15.32,16.39 -16.04,40.65 -15.65,50.13 -9.1,21.89 -3.99,47.41 -1.12,58.02 -10.86,29.71 -0.26,58.56 3.99,68.09 0,2.6 0.15,5.04 0.28,7.51 -35.63,-39 -116.7,-87.26 -147.66,-105.7 -1.45,-0.85 -3.28,-0.67 -4.52,0.52 -1.57,1.47 -1.65,3.87 -0.2,5.44 69.09,67.37 130.72,150.51 189.91,323.03 29.52,-30.72 82.89,-71.09 158.87,-71.09l88.86 0c-56.44,-210.3 25.72,-285.55 -50.83,-382.09zm420.1 108.74c-16.24,-4.24 -119.97,-22.61 -236.2,191.21 16.95,-79.62 68.5,-175.96 82.64,-203.94l0 -0.2c0.85,-1.6 0.37,-3.64 -1.05,-4.79 -1.45,-1.05 -3.62,-0.73 -4.72,0.87 -76.83,128.11 -103.8,201.88 -119.69,290.19l48.11 0c8.18,-85.11 115.7,-285.68 230.3,-270.76l0.15 0c0.64,0.13 1.22,-0.4 1.3,-1 0.28,-0.75 -0.2,-1.47 -0.85,-1.6zm-231.11 704.46l-26 -108.67 -44.26 0c7.01,27.57 17.04,55.62 30.02,80.22 0.82,1.47 2.39,2.32 3.96,2.07 2.1,-0.28 3.75,-2.48 3.35,-4.71 -3.02,-23.01 -6.61,-45.21 -10,-67.37 9.35,34.81 22,68.82 39.02,100.13 0.45,1 1.45,1.45 2.35,1.1 1.25,-0.25 1.92,-1.57 1.57,-2.76zm44.74 -49.34c-4.51,-18.16 -9.23,-40.44 -13.3,-59.34l-16.82 0c6.54,20.17 15.4,42.64 23.23,61.86 0.8,1.85 2.57,2.77 4.27,2.33 2.01,-0.6 3.14,-2.77 2.62,-4.84zm5.61 63.92l-0.13 -0.27c-5.44,-15.2 -12.95,-28.77 -18.91,-43.37 -6.36,-14.57 -12.53,-28.89 -17.61,-43.89 -4.27,-11.2 -8.79,-24.08 -12.26,-35.73l-16.24 0c4.59,13.6 10.55,28.25 16.12,41.37 12.22,29.64 26.37,58.67 44.39,84.67 0.65,0.95 1.9,1.32 3.07,0.87 1.44,-0.52 2.09,-2.19 1.57,-3.64zm24.31 -521.52c-1.25,-1.86 -4.25,-2.27 -5.69,-0.75 -29.54,31.17 -47.41,64.33 -53.58,76.58l17.55 0c8.78,-20.61 28.57,-57.02 41.26,-70.14l0.13 -0.13c1.32,-1.47 1.57,-3.92 0.33,-5.57zm-133.57 -150.86c16.22,-26.64 40.32,-47.05 60.76,-71.73 0.72,-0.93 0.65,-2.37 -0.2,-3.17 -0.78,-0.88 -2.1,-0.88 -2.95,-0.08 -4.64,4.99 -9.5,9.63 -14.47,14.27 -2.17,-1.07 -7.66,1.05 -13.22,5.42 -4.39,3.46 -7.54,7.3 -8.66,10.08 -2.81,-0.65 -8.1,2.66 -12.87,8.75 -3.94,5.12 -6.24,10.49 -6.19,13.8 -2.99,0.25 -7.38,4.12 -11.1,10.21 -2.44,4.04 -4.02,7.96 -4.54,11.21 -2.42,1.65 -5.16,4.77 -7.71,8.83 -3.34,5.56 -5.03,11.2 -4.51,14.44 -0.8,1.37 -1.58,2.72 -2.25,4.12 0.15,-1.15 0.28,-2.19 0.4,-3.34 4.79,-37.71 11.73,-75.11 22.28,-111.17 10.58,-35.95 23.3,-72.21 45.11,-101.33l0.13 -0.13c1.13,-1.59 0.97,-3.76 -0.4,-5.23 -1.37,-1.53 -3.66,-1.6 -5.11,-0.08 -7.51,8.04 -13.87,16.99 -19.57,26.2 -2.49,-1.32 -7.73,3.59 -11.73,11.28 -3.66,6.96 -4.96,13.39 -3.61,15.84 0,0 -0.05,0.2 -0.18,0.13 -2.62,-1.12 -7.46,4.71 -10.41,12.55 -2.89,7.33 -3.41,14.1 -1.45,16.37 -0.12,0.13 -0.12,0.2 -0.2,0.32 -2.94,-1.07 -7.73,5.64 -10.68,15.12 -2.42,8.01 -2.67,14.97 -0.92,17.77 0.15,0.12 0,0.45 -0.13,0.4 -3.02,-1.08 -7.58,5.84 -10.28,15.25 -2.7,9.08 -2.5,17.12 0.07,18.69 -2.94,-0.33 -7.09,6.56 -9.23,15.92 -1.97,8.08 -1.77,15.05 0.13,17.84 -2.9,0.85 -6.09,7.61 -7.74,16.37 -1.57,8.56 -0.77,15.65 1.32,17.9 -2.7,1.42 -5.44,8.35 -6.44,16.99 -0.98,8.56 0.28,15.57 2.5,17.82 -2.22,2.52 -4.4,8.51 -5.29,15.67 -0.93,6.81 -0.35,12.73 0.97,16.05 -2.42,2.05 -4.27,8.93 -4.31,17.24 -0.2,6.61 0.77,12.26 2.47,15.5 -1.3,3.32 -2.22,8.16 -2.22,13.52 -0.12,6.96 1,12.93 2.75,16.05 -0.52,24.47 -0.17,50.52 1.12,75.05l52.85 0c0.4,-19.09 1.62,-39.9 3.54,-58.82 3.74,-33.66 9.28,-67.86 26.12,-96.66l0.13 -0.2c0.52,-1.05 0.45,-2.24 -0.32,-3.17 -0.97,-0.87 -2.37,-0.87 -3.27,0.2 -22.85,26.52 -32.89,62.51 -38.78,97.06 -1.05,6.76 -1.9,13.57 -2.67,20.34 1.43,-27.7 4,-55.27 10.33,-81.55 7.28,-31.94 21.81,-62.38 49.51,-79.42 0.85,-0.52 1.32,-1.67 1,-2.79 -0.33,-1.25 -1.65,-1.97 -2.77,-1.65 -1.75,0.52 -3.39,1.47 -5.09,2.17 -1.84,-2.25 -8.59,-0.58 -15.52,3.87 -6.61,4.32 -11.01,9.61 -10.56,12.53 0,0.15 -0.32,0.33 -0.32,0.07 -0.06,-0.35 -0.13,-0.67 -0.33,-0.87 -2.5,-2.04 -9.18,2.6 -14.79,10.48 -5.7,7.88 -7.94,16.11 -5.52,18.23 0.15,0.05 0.08,0.26 -0.05,0.26 -2.94,-1.2 -7.86,5.51 -10.93,14.84 -2.25,6.56 -2.77,12.6 -1.97,16.04 0,0.15 -0.13,0.28 -0.13,0.28 -2.29,7.56 -4.19,15.19 -5.96,22.95 0.65,-10.95 1.62,-21.96 3.2,-32.84 4.67,-31.29 14.1,-61.91 30.86,-88.06zm166.25 -87.23c-3.34,-1.6 -7.73,-1.99 -12.13,-0.92 -3.27,0.77 -5.89,2.37 -8.11,4.24 0.32,-2.79 0.32,-5.59 -0.45,-8.63 -1.05,-4.77 -3.42,-8.68 -6.29,-11.2 -14.3,-14.25 -4.47,-57.14 -7.81,-57.67 -3.28,-0.47 -2.1,42.3 -8.83,62.31 -1.38,3.72 -1.65,8.43 -0.45,13.2 1.17,4.69 3.52,8.69 6.46,11.28 2.82,2.44 6.24,3.56 9.43,2.57 0.85,-0.13 1.72,-0.52 2.42,-1.04 0,0.52 0,1.04 0.07,1.6 0.73,3.5 3.22,6.21 6.61,7.81 3.46,1.65 7.74,2.07 12.18,0.92 4.51,-1.05 8.25,-3.5 10.68,-6.49 13.43,-15.59 44.98,-37.8 43.09,-40.77 -1.9,-2.92 -28.55,29.81 -46.88,22.8zm61.01 -54.05c-2.03,-2.92 -27.31,26.6 -44.52,19.24 -3.27,-1.67 -7.26,-2.12 -11.25,-1.08 -2.22,0.67 -4.12,1.84 -5.91,3.32 -0.05,-1.19 0,-2.24 -0.25,-3.32 -1.04,-4.32 -3.41,-7.68 -6.33,-9.93 -14.42,-12.6 -3.1,-50.93 -6.49,-51.32 -3.47,-0.41 -3.42,37.73 -10.88,55.62 -1.57,3.32 -2.02,7.43 -0.92,11.68 1.05,4.25 3.42,7.76 6.36,10.01 2.95,2.12 6.42,3.12 9.83,2.32 1.5,-0.41 2.8,-1.2 3.97,-2.05 0,0.2 -0.05,0.48 0,0.65 1.06,3.65 3.54,6.52 6.76,8.16 3.27,1.54 7.26,2.07 11.13,0.95 3.99,-1.08 7.13,-3.52 9.1,-6.52 10.68,-15.97 41.45,-34.69 39.41,-37.73zm6.24 -36.93c-2.22,-2.32 -20.36,28.04 -36.81,24.4 -3.07,-0.85 -6.68,-0.67 -9.95,1 -1.63,0.65 -3.02,1.8 -4.19,2.92 0,-0.72 0.2,-1.47 0.2,-2.27 -0.39,-3.84 -1.97,-7.41 -4.27,-9.81 -11.06,-13.52 4.34,-45.54 1.4,-46.53 -3.02,-0.87 -8.26,32.81 -17.42,47.46 -1.85,2.79 -2.77,6.39 -2.37,10.28 0.24,3.92 1.9,7.44 4.19,9.88 2.34,2.45 5.23,3.8 8.38,3.58 2.35,-0.05 4.39,-1.3 6.09,-2.97 0,1.32 0.25,2.79 0.92,4.17 1.42,3.07 4,5.19 7.14,6.04 3.07,1 6.74,0.72 10.01,-0.85 3.35,-1.67 5.76,-4.32 7.09,-7.32 7.21,-15.96 31.74,-37.65 29.59,-39.97zm-10.88 -42.17c-3.72,-2.64 -15.58,26.85 -29.67,34.56 -2.62,1.37 -5.09,3.89 -6.86,7.34 -1.78,3.51 -2.42,7.23 -1.97,10.36 0.33,3.12 1.77,5.76 4.07,7.08 2.35,1.4 5.17,1.32 7.86,-0.05 2.74,-1.4 5.16,-3.92 7.01,-7.43 1.7,-3.45 2.34,-7.17 1.95,-10.28 -1.05,-16.69 20.23,-39.9 17.62,-41.57zm-258.46 769.5l-148.32 0c-10.11,0 -19.19,-0.8 -27.57,-2.32 0.05,0 0.05,0.07 0.05,0.07 24.38,36.18 62.56,63.65 101.25,82.06 5.96,33.04 13.43,63.58 16.1,65.98 2.77,2.4 40.75,-8.56 41.92,-12.05 1.1,-3.54 -15.52,-60.09 -15.52,-60.09 19.96,-34.29 26.13,-54.5 32.09,-73.66zm373.13 253.74c-37.45,14.77 -86.3,16.04 -126.18,5.44 -91.37,-28.45 -192.8,-82.34 -290.17,-37.6 -97.39,-44.74 -198.82,9.15 -290.17,37.6 -39.87,10.6 -88.73,9.33 -126.18,-5.44 -1.05,-0.4 -1.85,0.93 -0.92,1.65 53.9,41.72 129.4,60.86 197.37,36.36 65.28,-20.36 120.5,-89.53 197.82,-60.01 -61.21,23.93 -118.45,68.09 -162.66,109.79l32.16 26.37c40.15,-46.74 85.31,-93.47 136.47,-121.92 7.01,-4.12 11.2,-5.76 16.12,-6.04 4.89,0.28 9.08,1.92 16.04,6.04 51.2,28.45 96.39,75.18 136.54,121.92l32.14 -26.37c-44.19,-41.7 -101.43,-85.86 -162.67,-109.79 77.35,-29.52 132.55,39.64 197.85,60.01 67.97,24.5 143.48,5.36 197.34,-36.36 0.85,-0.72 0.15,-2.05 -0.9,-1.65zm-602.07 -62.98c-95.46,-23.16 -121.61,-112.66 -201.43,-151.51 -0.85,-0.47 -1.78,0.52 -1.25,1.32 25.15,41.37 38.78,104.75 111.27,143.8 0.6,0.35 0.28,1.27 -0.37,1.07 -104,-20.02 -147.67,7.83 -256.66,-41.45 -0.9,-0.37 -1.9,0.6 -1.29,1.47 35.83,51.97 120.81,87.5 237.24,77.7 41.92,-3.59 72.29,-21.21 112.5,-30.65 0.98,-0.24 0.98,-1.59 0,-1.77zm-199.99 -54.92c-36.28,-47.53 -25.93,-149.04 -107.84,-241.91 -0.67,-0.75 -1.84,-0.16 -1.65,0.77 15.65,68.45 11.01,146.15 53.83,203.08 0.4,0.6 -0.2,1.2 -0.77,0.8 -84.5,-66.49 -171.32,-86.5 -209.95,-140.35 -0.6,-0.73 -1.78,-0.32 -1.65,0.6 9.58,69.69 143.43,178.28 267.31,178.48 0.72,0 1.19,-0.87 0.72,-1.47zm-126.83 -126.36c-38.9,-72.14 7.58,-182.2 -36.56,-289.14 -0.45,-1.12 -2.16,-0.88 -2.16,0.33 -1.3,58.44 -37.58,145.62 -15.65,211.44 0.27,0.6 -0.52,0.93 -0.85,0.4 -55.87,-81.62 -100.19,-98.66 -137.11,-173.37 -0.53,-1.15 -2.25,-0.79 -2.3,0.37 -2.35,50.81 20.09,92.18 45.44,130.62 40.55,52.05 92.72,93.22 147.94,120.67 0.85,0.39 1.62,-0.45 1.25,-1.32zm-26.4 -439.3c-0.07,-1.2 -1.65,-1.6 -2.22,-0.53 -29.66,55.5 -82.51,99.64 -84.21,172.89 -0.08,0.75 -0.87,0.8 -0.98,0.16 -9.65,-56.57 -57.64,-119.95 -59.73,-201.85 0,-1.24 -1.78,-1.59 -2.22,-0.39 -39.49,106.5 17.3,207.45 77.73,290.86 0.65,0.88 1.94,0.35 1.94,-0.8 -2.47,-88.38 74.13,-154.33 69.69,-260.35zm37.73 -137.79c-28.05,38.93 -91.1,66.45 -114.15,122.59 -0.33,0.8 -1.3,0.6 -1.17,-0.33 9.16,-62.9 -15.12,-135.99 7.66,-219.58 0.33,-1.19 -1.17,-1.99 -1.9,-1.08 -34.44,42.37 -46.12,92.03 -48.01,145.67 -2.34,65.9 20.84,113.96 32.29,158.67 0.26,1.05 1.65,0.98 1.9,-0.07 16.52,-58.61 99.33,-93.89 125.29,-204.96 0.32,-1.2 -1.19,-1.9 -1.9,-0.93zm76.03 -130.87c-46.11,36.13 -116.5,70.94 -131.64,96.07 -0.25,0.55 -1.02,0.13 -0.9,-0.4l17.09 -82.01c7.66,-34.81 14.27,-68.15 33.51,-99.31 0.6,-0.92 -0.52,-1.99 -1.37,-1.32 -87.73,69.46 -74.9,170 -78.77,252.26 -0.05,0.87 1,1.27 1.57,0.67 51.68,-56.02 135.89,-88.66 161.94,-164.83 0.33,-0.93 -0.64,-1.73 -1.42,-1.12zm65.28 -125.96c-77.53,2.44 -134.5,67.74 -158.92,150.88 -0.15,0.47 0.52,0.88 0.9,0.6 106.82,-78.3 100.86,-111.86 158.67,-149.12 1.04,-0.67 0.59,-2.37 -0.65,-2.37zm893.98 968.44c-108.89,49.28 -152.63,21.43 -256.63,41.45 -0.65,0.2 -0.97,-0.73 -0.37,-1.07 72.49,-39.05 86.11,-102.43 111.27,-143.8 0.52,-0.8 -0.43,-1.8 -1.25,-1.32 -79.77,38.85 -105.9,128.35 -201.44,151.51 -1,0.18 -1,1.52 0,1.77 40.2,9.44 70.6,27.06 112.51,30.65 116.43,9.8 201.49,-25.73 237.24,-77.7 0.6,-0.87 -0.39,-1.85 -1.32,-1.47zm117.95 -185.77c-38.63,53.85 -125.46,73.86 -209.95,140.35 -0.52,0.4 -1.17,-0.2 -0.72,-0.8 42.77,-56.94 38.1,-134.64 53.77,-203.08 0.2,-0.93 -1,-1.52 -1.64,-0.77 -81.84,92.87 -71.56,194.38 -107.77,241.91 -0.47,0.6 -0.07,1.47 0.7,1.47 123.91,-0.2 257.7,-108.79 267.23,-178.48 0.16,-0.92 -1.04,-1.32 -1.62,-0.6zm55.07 -198.72c-0.05,-1.17 -1.77,-1.52 -2.3,-0.37 -36.93,74.71 -81.27,91.75 -137.03,173.37 -0.42,0.53 -1.12,0.2 -0.95,-0.4 21.96,-65.82 -14.25,-153 -15.65,-211.44 0,-1.2 -1.7,-1.45 -2.15,-0.33 -44.14,106.95 2.35,217.01 -36.47,289.14 -0.45,0.87 0.32,1.72 1.17,1.32 55.19,-27.45 107.39,-68.62 147.94,-120.67 25.33,-38.45 47.81,-79.82 45.44,-130.62zm-18.86 -219.05c-0.45,-1.19 -2.22,-0.85 -2.22,0.39 -2.09,81.9 -50.1,145.28 -59.71,201.85 -0.15,0.64 -0.93,0.6 -0.93,-0.16 -1.69,-73.25 -54.62,-117.4 -84.28,-172.89 -0.58,-1.07 -2.15,-0.67 -2.15,0.53 -4.46,106.02 72.09,171.97 69.59,260.35 0,1.15 1.37,1.68 2.05,0.8 60.36,-83.41 117.15,-184.36 77.65,-290.86zm-29.52 -60.79c-1.92,-53.64 -13.55,-103.3 -48.01,-145.67 -0.72,-0.92 -2.17,-0.12 -1.9,1.08 22.78,83.59 -1.52,156.68 7.74,219.58 0.12,0.93 -0.93,1.12 -1.25,0.33 -23.05,-56.14 -86.11,-83.66 -114.15,-122.59 -0.65,-0.97 -2.15,-0.28 -1.9,0.93 25.93,111.06 108.76,146.34 125.26,204.96 0.28,1.05 1.65,1.12 1.92,0.07 11.45,-44.71 34.63,-92.77 32.29,-158.67zm-150.29 -265.14c-0.88,-0.67 -1.97,0.4 -1.4,1.32 19.27,31.16 25.88,64.5 33.54,99.31l17.09 82.01c0.15,0.53 -0.65,0.95 -0.9,0.4 -15.14,-25.13 -85.46,-59.94 -131.64,-96.07 -0.73,-0.6 -1.78,0.2 -1.43,1.12 26.05,76.18 110.27,108.81 161.95,164.83 0.57,0.6 1.62,0.2 1.57,-0.67 -3.87,-82.27 8.96,-182.8 -78.77,-252.26zm-148.59 -38.97c-1.25,0 -1.65,1.7 -0.65,2.37 57.81,37.25 51.85,70.81 158.67,149.12 0.45,0.28 1.05,-0.13 0.9,-0.6 -24.42,-83.14 -81.39,-148.44 -158.91,-150.88z"/>
 </g>
</svg>
